<svg xmlns="http://www.w3.org/2000/svg" xmlns:xlink="http://www.w3.org/1999/xlink" width="500" zoomAndPan="magnify" viewBox="0 0 375 374.999991" height="500" preserveAspectRatio="xMidYMid meet" version="1.0"><defs><clipPath id="181fdc1211"><path d="M 75 0 L 300 0 C 319.890625 0 338.96875 7.902344 353.03125 21.96875 C 367.097656 36.03125 375 55.109375 375 75 L 375 300 C 375 319.890625 367.097656 338.96875 353.03125 353.03125 C 338.96875 367.097656 319.890625 375 300 375 L 75 375 C 55.109375 375 36.03125 367.097656 21.96875 353.03125 C 7.902344 338.96875 0 319.890625 0 300 L 0 75 C 0 55.109375 7.902344 36.03125 21.96875 21.96875 C 36.03125 7.902344 55.109375 0 75 0 Z M 75 0 " clip-rule="nonzero"/></clipPath><linearGradient x1="0.000000000000014552" gradientTransform="matrix(1.464844, 0, 0, 1.464844, 0.0000045, 0)" y1="128" x2="255.999988" gradientUnits="userSpaceOnUse" y2="128" id="679079a95d"><stop stop-opacity="1" stop-color="rgb(54.899597%, 32.199097%, 100%)" offset="0"/><stop stop-opacity="1" stop-color="rgb(55.075073%, 32.229614%, 99.908447%)" offset="0.0078125"/><stop stop-opacity="1" stop-color="rgb(55.427551%, 32.290649%, 99.728394%)" offset="0.015625"/><stop stop-opacity="1" stop-color="rgb(55.780029%, 32.351685%, 99.54834%)" offset="0.0234375"/><stop stop-opacity="1" stop-color="rgb(56.130981%, 32.41272%, 99.36676%)" offset="0.03125"/><stop stop-opacity="1" stop-color="rgb(56.483459%, 32.473755%, 99.186707%)" offset="0.0390625"/><stop stop-opacity="1" stop-color="rgb(56.835938%, 32.53479%, 99.006653%)" offset="0.046875"/><stop stop-opacity="1" stop-color="rgb(57.188416%, 32.595825%, 98.826599%)" offset="0.0546875"/><stop stop-opacity="1" stop-color="rgb(57.540894%, 32.65686%, 98.64502%)" offset="0.0625"/><stop stop-opacity="1" stop-color="rgb(57.893372%, 32.717896%, 98.464966%)" offset="0.0703125"/><stop stop-opacity="1" stop-color="rgb(58.24585%, 32.777405%, 98.284912%)" offset="0.078125"/><stop stop-opacity="1" stop-color="rgb(58.598328%, 32.83844%, 98.104858%)" offset="0.0859375"/><stop stop-opacity="1" stop-color="rgb(58.950806%, 32.899475%, 97.923279%)" offset="0.09375"/><stop stop-opacity="1" stop-color="rgb(59.303284%, 32.96051%, 97.743225%)" offset="0.101562"/><stop stop-opacity="1" stop-color="rgb(59.655762%, 33.021545%, 97.563171%)" offset="0.109375"/><stop stop-opacity="1" stop-color="rgb(60.00824%, 33.082581%, 97.381592%)" offset="0.117188"/><stop stop-opacity="1" stop-color="rgb(60.359192%, 33.143616%, 97.201538%)" offset="0.125"/><stop stop-opacity="1" stop-color="rgb(60.71167%, 33.204651%, 97.021484%)" offset="0.132812"/><stop stop-opacity="1" stop-color="rgb(61.064148%, 33.265686%, 96.841431%)" offset="0.140625"/><stop stop-opacity="1" stop-color="rgb(61.416626%, 33.326721%, 96.659851%)" offset="0.148438"/><stop stop-opacity="1" stop-color="rgb(61.769104%, 33.387756%, 96.479797%)" offset="0.15625"/><stop stop-opacity="1" stop-color="rgb(62.121582%, 33.448792%, 96.299744%)" offset="0.164062"/><stop stop-opacity="1" stop-color="rgb(62.47406%, 33.509827%, 96.11969%)" offset="0.171875"/><stop stop-opacity="1" stop-color="rgb(62.826538%, 33.570862%, 95.93811%)" offset="0.179688"/><stop stop-opacity="1" stop-color="rgb(63.179016%, 33.631897%, 95.758057%)" offset="0.1875"/><stop stop-opacity="1" stop-color="rgb(63.531494%, 33.691406%, 95.578003%)" offset="0.195312"/><stop stop-opacity="1" stop-color="rgb(63.883972%, 33.752441%, 95.396423%)" offset="0.203125"/><stop stop-opacity="1" stop-color="rgb(64.234924%, 33.813477%, 95.21637%)" offset="0.210938"/><stop stop-opacity="1" stop-color="rgb(64.587402%, 33.874512%, 95.036316%)" offset="0.21875"/><stop stop-opacity="1" stop-color="rgb(64.93988%, 33.935547%, 94.856262%)" offset="0.226563"/><stop stop-opacity="1" stop-color="rgb(65.292358%, 33.996582%, 94.674683%)" offset="0.234375"/><stop stop-opacity="1" stop-color="rgb(65.644836%, 34.057617%, 94.494629%)" offset="0.242188"/><stop stop-opacity="1" stop-color="rgb(65.997314%, 34.118652%, 94.314575%)" offset="0.25"/><stop stop-opacity="1" stop-color="rgb(66.349792%, 34.179688%, 94.134521%)" offset="0.257813"/><stop stop-opacity="1" stop-color="rgb(66.702271%, 34.240723%, 93.952942%)" offset="0.265625"/><stop stop-opacity="1" stop-color="rgb(67.054749%, 34.301758%, 93.772888%)" offset="0.273438"/><stop stop-opacity="1" stop-color="rgb(67.407227%, 34.362793%, 93.592834%)" offset="0.28125"/><stop stop-opacity="1" stop-color="rgb(67.759705%, 34.423828%, 93.411255%)" offset="0.289063"/><stop stop-opacity="1" stop-color="rgb(68.112183%, 34.484863%, 93.231201%)" offset="0.296875"/><stop stop-opacity="1" stop-color="rgb(68.463135%, 34.545898%, 93.051147%)" offset="0.304688"/><stop stop-opacity="1" stop-color="rgb(68.815613%, 34.606934%, 92.871094%)" offset="0.3125"/><stop stop-opacity="1" stop-color="rgb(69.168091%, 34.666443%, 92.689514%)" offset="0.320312"/><stop stop-opacity="1" stop-color="rgb(69.520569%, 34.727478%, 92.50946%)" offset="0.328125"/><stop stop-opacity="1" stop-color="rgb(69.873047%, 34.788513%, 92.329407%)" offset="0.335938"/><stop stop-opacity="1" stop-color="rgb(70.225525%, 34.849548%, 92.149353%)" offset="0.34375"/><stop stop-opacity="1" stop-color="rgb(70.578003%, 34.910583%, 91.967773%)" offset="0.351562"/><stop stop-opacity="1" stop-color="rgb(70.930481%, 34.971619%, 91.78772%)" offset="0.359375"/><stop stop-opacity="1" stop-color="rgb(71.282959%, 35.032654%, 91.607666%)" offset="0.367188"/><stop stop-opacity="1" stop-color="rgb(71.635437%, 35.093689%, 91.426086%)" offset="0.375"/><stop stop-opacity="1" stop-color="rgb(71.987915%, 35.154724%, 91.246033%)" offset="0.382812"/><stop stop-opacity="1" stop-color="rgb(72.338867%, 35.215759%, 91.065979%)" offset="0.390625"/><stop stop-opacity="1" stop-color="rgb(72.691345%, 35.276794%, 90.885925%)" offset="0.398438"/><stop stop-opacity="1" stop-color="rgb(73.043823%, 35.33783%, 90.704346%)" offset="0.40625"/><stop stop-opacity="1" stop-color="rgb(73.396301%, 35.398865%, 90.524292%)" offset="0.414063"/><stop stop-opacity="1" stop-color="rgb(73.748779%, 35.4599%, 90.344238%)" offset="0.421875"/><stop stop-opacity="1" stop-color="rgb(74.101257%, 35.520935%, 90.164185%)" offset="0.429688"/><stop stop-opacity="1" stop-color="rgb(74.453735%, 35.58197%, 89.982605%)" offset="0.4375"/><stop stop-opacity="1" stop-color="rgb(74.806213%, 35.641479%, 89.802551%)" offset="0.445313"/><stop stop-opacity="1" stop-color="rgb(75.158691%, 35.702515%, 89.622498%)" offset="0.453125"/><stop stop-opacity="1" stop-color="rgb(75.511169%, 35.76355%, 89.440918%)" offset="0.460938"/><stop stop-opacity="1" stop-color="rgb(75.863647%, 35.824585%, 89.260864%)" offset="0.46875"/><stop stop-opacity="1" stop-color="rgb(76.2146%, 35.88562%, 89.080811%)" offset="0.476563"/><stop stop-opacity="1" stop-color="rgb(76.567078%, 35.946655%, 88.900757%)" offset="0.484375"/><stop stop-opacity="1" stop-color="rgb(76.919556%, 36.00769%, 88.719177%)" offset="0.492188"/><stop stop-opacity="1" stop-color="rgb(77.272034%, 36.068726%, 88.539124%)" offset="0.5"/><stop stop-opacity="1" stop-color="rgb(77.624512%, 36.129761%, 88.35907%)" offset="0.507812"/><stop stop-opacity="1" stop-color="rgb(77.97699%, 36.190796%, 88.179016%)" offset="0.515625"/><stop stop-opacity="1" stop-color="rgb(78.329468%, 36.251831%, 87.997437%)" offset="0.523438"/><stop stop-opacity="1" stop-color="rgb(78.681946%, 36.312866%, 87.817383%)" offset="0.53125"/><stop stop-opacity="1" stop-color="rgb(79.034424%, 36.373901%, 87.637329%)" offset="0.539062"/><stop stop-opacity="1" stop-color="rgb(79.386902%, 36.434937%, 87.45575%)" offset="0.546875"/><stop stop-opacity="1" stop-color="rgb(79.73938%, 36.495972%, 87.275696%)" offset="0.554688"/><stop stop-opacity="1" stop-color="rgb(80.091858%, 36.555481%, 87.095642%)" offset="0.5625"/><stop stop-opacity="1" stop-color="rgb(80.44281%, 36.616516%, 86.915588%)" offset="0.570312"/><stop stop-opacity="1" stop-color="rgb(80.795288%, 36.677551%, 86.734009%)" offset="0.578125"/><stop stop-opacity="1" stop-color="rgb(81.147766%, 36.738586%, 86.553955%)" offset="0.585938"/><stop stop-opacity="1" stop-color="rgb(81.500244%, 36.799622%, 86.373901%)" offset="0.59375"/><stop stop-opacity="1" stop-color="rgb(81.852722%, 36.860657%, 86.193848%)" offset="0.601562"/><stop stop-opacity="1" stop-color="rgb(82.2052%, 36.921692%, 86.012268%)" offset="0.609375"/><stop stop-opacity="1" stop-color="rgb(82.557678%, 36.982727%, 85.832214%)" offset="0.617188"/><stop stop-opacity="1" stop-color="rgb(82.910156%, 37.043762%, 85.652161%)" offset="0.625"/><stop stop-opacity="1" stop-color="rgb(83.262634%, 37.104797%, 85.470581%)" offset="0.632812"/><stop stop-opacity="1" stop-color="rgb(83.615112%, 37.165833%, 85.290527%)" offset="0.640625"/><stop stop-opacity="1" stop-color="rgb(83.96759%, 37.226868%, 85.110474%)" offset="0.648438"/><stop stop-opacity="1" stop-color="rgb(84.318542%, 37.287903%, 84.93042%)" offset="0.65625"/><stop stop-opacity="1" stop-color="rgb(84.671021%, 37.348938%, 84.74884%)" offset="0.664062"/><stop stop-opacity="1" stop-color="rgb(85.023499%, 37.409973%, 84.568787%)" offset="0.671875"/><stop stop-opacity="1" stop-color="rgb(85.375977%, 37.471008%, 84.388733%)" offset="0.679687"/><stop stop-opacity="1" stop-color="rgb(85.728455%, 37.530518%, 84.208679%)" offset="0.6875"/><stop stop-opacity="1" stop-color="rgb(86.080933%, 37.591553%, 84.0271%)" offset="0.695312"/><stop stop-opacity="1" stop-color="rgb(86.433411%, 37.652588%, 83.847046%)" offset="0.703125"/><stop stop-opacity="1" stop-color="rgb(86.785889%, 37.713623%, 83.666992%)" offset="0.710938"/><stop stop-opacity="1" stop-color="rgb(87.138367%, 37.774658%, 83.485413%)" offset="0.71875"/><stop stop-opacity="1" stop-color="rgb(87.490845%, 37.835693%, 83.305359%)" offset="0.726562"/><stop stop-opacity="1" stop-color="rgb(87.843323%, 37.896729%, 83.125305%)" offset="0.734375"/><stop stop-opacity="1" stop-color="rgb(88.194275%, 37.957764%, 82.945251%)" offset="0.742188"/><stop stop-opacity="1" stop-color="rgb(88.546753%, 38.018799%, 82.763672%)" offset="0.75"/><stop stop-opacity="1" stop-color="rgb(88.899231%, 38.079834%, 82.583618%)" offset="0.757812"/><stop stop-opacity="1" stop-color="rgb(89.251709%, 38.140869%, 82.403564%)" offset="0.765625"/><stop stop-opacity="1" stop-color="rgb(89.604187%, 38.201904%, 82.223511%)" offset="0.773438"/><stop stop-opacity="1" stop-color="rgb(89.956665%, 38.262939%, 82.041931%)" offset="0.78125"/><stop stop-opacity="1" stop-color="rgb(90.309143%, 38.323975%, 81.861877%)" offset="0.789062"/><stop stop-opacity="1" stop-color="rgb(90.661621%, 38.38501%, 81.681824%)" offset="0.796875"/><stop stop-opacity="1" stop-color="rgb(91.014099%, 38.444519%, 81.500244%)" offset="0.804687"/><stop stop-opacity="1" stop-color="rgb(91.366577%, 38.505554%, 81.32019%)" offset="0.8125"/><stop stop-opacity="1" stop-color="rgb(91.719055%, 38.566589%, 81.140137%)" offset="0.820312"/><stop stop-opacity="1" stop-color="rgb(92.071533%, 38.627625%, 80.960083%)" offset="0.828125"/><stop stop-opacity="1" stop-color="rgb(92.422485%, 38.68866%, 80.778503%)" offset="0.835937"/><stop stop-opacity="1" stop-color="rgb(92.774963%, 38.749695%, 80.59845%)" offset="0.84375"/><stop stop-opacity="1" stop-color="rgb(93.127441%, 38.81073%, 80.418396%)" offset="0.851562"/><stop stop-opacity="1" stop-color="rgb(93.479919%, 38.871765%, 80.238342%)" offset="0.859375"/><stop stop-opacity="1" stop-color="rgb(93.832397%, 38.9328%, 80.056763%)" offset="0.867188"/><stop stop-opacity="1" stop-color="rgb(94.184875%, 38.993835%, 79.876709%)" offset="0.875"/><stop stop-opacity="1" stop-color="rgb(94.537354%, 39.054871%, 79.696655%)" offset="0.882812"/><stop stop-opacity="1" stop-color="rgb(94.889832%, 39.115906%, 79.515076%)" offset="0.890625"/><stop stop-opacity="1" stop-color="rgb(95.24231%, 39.176941%, 79.335022%)" offset="0.898437"/><stop stop-opacity="1" stop-color="rgb(95.594788%, 39.237976%, 79.154968%)" offset="0.90625"/><stop stop-opacity="1" stop-color="rgb(95.947266%, 39.299011%, 78.974915%)" offset="0.914062"/><stop stop-opacity="1" stop-color="rgb(96.298218%, 39.360046%, 78.793335%)" offset="0.921875"/><stop stop-opacity="1" stop-color="rgb(96.650696%, 39.419556%, 78.613281%)" offset="0.929688"/><stop stop-opacity="1" stop-color="rgb(97.003174%, 39.480591%, 78.433228%)" offset="0.9375"/><stop stop-opacity="1" stop-color="rgb(97.355652%, 39.541626%, 78.253174%)" offset="0.945312"/><stop stop-opacity="1" stop-color="rgb(97.70813%, 39.602661%, 78.071594%)" offset="0.953125"/><stop stop-opacity="1" stop-color="rgb(98.060608%, 39.663696%, 77.891541%)" offset="0.960938"/><stop stop-opacity="1" stop-color="rgb(98.413086%, 39.724731%, 77.711487%)" offset="0.96875"/><stop stop-opacity="1" stop-color="rgb(98.765564%, 39.785767%, 77.531433%)" offset="0.976562"/><stop stop-opacity="1" stop-color="rgb(99.118042%, 39.846802%, 77.349854%)" offset="0.984375"/><stop stop-opacity="1" stop-color="rgb(99.47052%, 39.907837%, 77.1698%)" offset="0.992188"/><stop stop-opacity="1" stop-color="rgb(99.822998%, 39.968872%, 76.989746%)" offset="1"/></linearGradient><clipPath id="4aaff50a56"><path d="M 91 66.875 L 283.75 66.875 L 283.75 308.375 L 91 308.375 Z M 91 66.875 " clip-rule="nonzero"/></clipPath></defs><g clip-path="url(#181fdc1211)"><rect x="-37.5" fill="url(#679079a95d)" width="450" y="-37.499999" height="449.999989"/></g><g clip-path="url(#4aaff50a56)"><path fill="#ffffff" d="M 99.042969 82.957031 C 99.042969 78.527344 102.65625 74.914062 107.082031 74.914062 L 247.808594 74.914062 L 247.808594 86.976562 C 247.808594 95.851562 255.015625 103.0625 263.890625 103.0625 L 275.953125 103.0625 L 275.953125 292.035156 C 275.953125 296.464844 272.339844 300.074219 267.910156 300.074219 L 107.082031 300.074219 C 102.65625 300.074219 99.042969 296.464844 99.042969 292.035156 Z M 270.265625 95.019531 L 263.890625 95.019531 C 259.460938 95.019531 255.847656 91.40625 255.847656 86.976562 L 255.847656 80.601562 Z M 107.082031 308.117188 L 267.910156 308.117188 C 276.785156 308.117188 283.996094 300.90625 283.996094 292.035156 L 283.996094 102.371094 C 283.996094 100.671875 283.632812 99.054688 282.972656 97.546875 C 282.925781 97.453125 282.878906 97.390625 282.847656 97.3125 C 282.25 96.039062 281.480469 94.863281 280.460938 93.839844 L 257.027344 70.410156 C 256.007812 69.386719 254.8125 68.601562 253.539062 68.003906 C 253.460938 67.972656 253.414062 67.925781 253.335938 67.910156 C 251.828125 67.234375 250.195312 66.875 248.5 66.875 L 107.082031 66.875 C 98.210938 66.875 91 74.082031 91 82.957031 L 91 292.035156 C 91 300.90625 98.210938 308.117188 107.082031 308.117188 " fill-opacity="1" fill-rule="nonzero"/></g><path fill="#ffffff" d="M 123.167969 123.164062 C 123.167969 120.949219 124.972656 119.144531 127.1875 119.144531 L 151.3125 119.144531 C 153.039062 119.144531 154.484375 120.242188 155.050781 121.78125 L 143.269531 133.5625 L 138.070312 128.363281 C 136.5 126.792969 133.957031 126.792969 132.386719 128.363281 C 130.816406 129.933594 130.816406 132.476562 132.386719 134.046875 L 140.425781 142.089844 C 141.210938 142.875 142.234375 143.269531 143.269531 143.269531 C 144.304688 143.269531 145.328125 142.875 146.113281 142.089844 L 155.332031 132.871094 L 155.332031 147.289062 C 155.332031 149.503906 153.527344 151.308594 151.3125 151.308594 L 127.1875 151.308594 C 124.972656 151.308594 123.167969 149.503906 123.167969 147.289062 Z M 127.1875 159.351562 L 151.3125 159.351562 C 157.96875 159.351562 163.375 153.949219 163.375 147.289062 L 163.375 124.828125 L 174.257812 113.945312 C 175.828125 112.375 175.828125 109.828125 174.257812 108.257812 C 172.6875 106.6875 170.144531 106.6875 168.570312 108.257812 L 160.90625 115.925781 C 158.691406 113.019531 155.238281 111.101562 151.3125 111.101562 L 127.1875 111.101562 C 120.527344 111.101562 115.125 116.503906 115.125 123.164062 L 115.125 147.289062 C 115.125 153.949219 120.527344 159.351562 127.1875 159.351562 " fill-opacity="1" fill-rule="nonzero"/><path fill="#ffffff" d="M 123.167969 179.453125 C 123.167969 177.238281 124.972656 175.433594 127.1875 175.433594 L 151.3125 175.433594 C 153.527344 175.433594 155.332031 177.238281 155.332031 179.453125 L 155.332031 203.578125 C 155.332031 205.792969 153.527344 207.597656 151.3125 207.597656 L 127.1875 207.597656 C 124.972656 207.597656 123.167969 205.792969 123.167969 203.578125 Z M 127.1875 215.640625 L 151.3125 215.640625 C 157.96875 215.640625 163.375 210.238281 163.375 203.578125 L 163.375 179.453125 C 163.375 172.792969 157.96875 167.390625 151.3125 167.390625 L 127.1875 167.390625 C 120.527344 167.390625 115.125 172.792969 115.125 179.453125 L 115.125 203.578125 C 115.125 210.238281 120.527344 215.640625 127.1875 215.640625 " fill-opacity="1" fill-rule="nonzero"/><path fill="#ffffff" d="M 123.167969 235.742188 C 123.167969 233.53125 124.972656 231.722656 127.1875 231.722656 L 151.3125 231.722656 C 153.527344 231.722656 155.332031 233.53125 155.332031 235.742188 L 155.332031 259.867188 C 155.332031 262.082031 153.527344 263.890625 151.3125 263.890625 L 127.1875 263.890625 C 124.972656 263.890625 123.167969 262.082031 123.167969 259.867188 Z M 127.1875 271.929688 L 151.3125 271.929688 C 157.96875 271.929688 163.375 266.527344 163.375 259.867188 L 163.375 235.742188 C 163.375 229.085938 157.96875 223.683594 151.3125 223.683594 L 127.1875 223.683594 C 120.527344 223.683594 115.125 229.085938 115.125 235.742188 L 115.125 259.867188 C 115.125 266.527344 120.527344 271.929688 127.1875 271.929688 " fill-opacity="1" fill-rule="nonzero"/><path fill="#ffffff" d="M 187.496094 127.183594 L 255.847656 127.183594 C 258.0625 127.183594 259.871094 125.378906 259.871094 123.164062 C 259.871094 120.949219 258.0625 119.144531 255.847656 119.144531 L 187.496094 119.144531 C 185.28125 119.144531 183.476562 120.949219 183.476562 123.164062 C 183.476562 125.378906 185.28125 127.183594 187.496094 127.183594 " fill-opacity="1" fill-rule="nonzero"/><path fill="#ffffff" d="M 187.496094 147.289062 L 227.703125 147.289062 C 229.917969 147.289062 231.726562 145.480469 231.726562 143.269531 C 231.726562 141.054688 229.917969 139.246094 227.703125 139.246094 L 187.496094 139.246094 C 185.28125 139.246094 183.476562 141.054688 183.476562 143.269531 C 183.476562 145.480469 185.28125 147.289062 187.496094 147.289062 " fill-opacity="1" fill-rule="nonzero"/><path fill="#ffffff" d="M 187.496094 183.476562 L 255.847656 183.476562 C 258.0625 183.476562 259.871094 181.667969 259.871094 179.453125 C 259.871094 177.238281 258.0625 175.433594 255.847656 175.433594 L 187.496094 175.433594 C 185.28125 175.433594 183.476562 177.238281 183.476562 179.453125 C 183.476562 181.667969 185.28125 183.476562 187.496094 183.476562 " fill-opacity="1" fill-rule="nonzero"/><path fill="#ffffff" d="M 187.496094 203.578125 L 227.703125 203.578125 C 229.917969 203.578125 231.726562 201.773438 231.726562 199.558594 C 231.726562 197.34375 229.917969 195.535156 227.703125 195.535156 L 187.496094 195.535156 C 185.28125 195.535156 183.476562 197.34375 183.476562 199.558594 C 183.476562 201.773438 185.28125 203.578125 187.496094 203.578125 " fill-opacity="1" fill-rule="nonzero"/><path fill="#ffffff" d="M 187.496094 239.765625 L 255.847656 239.765625 C 258.0625 239.765625 259.871094 237.957031 259.871094 235.742188 C 259.871094 233.53125 258.0625 231.722656 255.847656 231.722656 L 187.496094 231.722656 C 185.28125 231.722656 183.476562 233.53125 183.476562 235.742188 C 183.476562 237.957031 185.28125 239.765625 187.496094 239.765625 " fill-opacity="1" fill-rule="nonzero"/><path fill="#ffffff" d="M 187.496094 259.867188 L 227.703125 259.867188 C 229.917969 259.867188 231.726562 258.0625 231.726562 255.847656 C 231.726562 253.632812 229.917969 251.828125 227.703125 251.828125 L 187.496094 251.828125 C 185.28125 251.828125 183.476562 253.632812 183.476562 255.847656 C 183.476562 258.0625 185.28125 259.867188 187.496094 259.867188 " fill-opacity="1" fill-rule="nonzero"/></svg>