<svg xmlns="http://www.w3.org/2000/svg" xmlns:xlink="http://www.w3.org/1999/xlink" width="500" zoomAndPan="magnify" viewBox="0 0 375 374.999991" height="500" preserveAspectRatio="xMidYMid meet" version="1.0"><defs><clipPath id="21aa222944"><path d="M 37.5 37.5 L 337.5 37.5 L 337.5 337.5 L 37.5 337.5 Z M 37.5 37.5 " clip-rule="nonzero"/></clipPath><clipPath id="278ee54599"><path d="M 61.5 37.5 L 313.5 37.5 C 326.753906 37.5 337.5 48.246094 337.5 61.5 L 337.5 313.5 C 337.5 326.753906 326.753906 337.5 313.5 337.5 L 61.5 337.5 C 48.246094 337.5 37.5 326.753906 37.5 313.5 L 37.5 61.5 C 37.5 48.246094 48.246094 37.5 61.5 37.5 Z M 61.5 37.5 " clip-rule="nonzero"/></clipPath><linearGradient x1="-0.00000133333" gradientTransform="matrix(1.171875, 0, 0, 1.171875, 37.500004, 37.499999)" y1="128" x2="255.999988" gradientUnits="userSpaceOnUse" y2="128" id="8f8b4dc2a1"><stop stop-opacity="1" stop-color="rgb(54.899597%, 32.199097%, 100%)" offset="0"/><stop stop-opacity="1" stop-color="rgb(55.075073%, 32.229614%, 99.908447%)" offset="0.0078125"/><stop stop-opacity="1" stop-color="rgb(55.427551%, 32.290649%, 99.728394%)" offset="0.015625"/><stop stop-opacity="1" stop-color="rgb(55.780029%, 32.351685%, 99.54834%)" offset="0.0234375"/><stop stop-opacity="1" stop-color="rgb(56.130981%, 32.41272%, 99.36676%)" offset="0.03125"/><stop stop-opacity="1" stop-color="rgb(56.483459%, 32.473755%, 99.186707%)" offset="0.0390625"/><stop stop-opacity="1" stop-color="rgb(56.835938%, 32.53479%, 99.006653%)" offset="0.046875"/><stop stop-opacity="1" stop-color="rgb(57.188416%, 32.595825%, 98.826599%)" offset="0.0546875"/><stop stop-opacity="1" stop-color="rgb(57.540894%, 32.65686%, 98.64502%)" offset="0.0625"/><stop stop-opacity="1" stop-color="rgb(57.893372%, 32.717896%, 98.464966%)" offset="0.0703125"/><stop stop-opacity="1" stop-color="rgb(58.24585%, 32.777405%, 98.284912%)" offset="0.078125"/><stop stop-opacity="1" stop-color="rgb(58.598328%, 32.83844%, 98.104858%)" offset="0.0859375"/><stop stop-opacity="1" stop-color="rgb(58.950806%, 32.899475%, 97.923279%)" offset="0.09375"/><stop stop-opacity="1" stop-color="rgb(59.303284%, 32.96051%, 97.743225%)" offset="0.101562"/><stop stop-opacity="1" stop-color="rgb(59.655762%, 33.021545%, 97.563171%)" offset="0.109375"/><stop stop-opacity="1" stop-color="rgb(60.00824%, 33.082581%, 97.381592%)" offset="0.117187"/><stop stop-opacity="1" stop-color="rgb(60.359192%, 33.143616%, 97.201538%)" offset="0.125"/><stop stop-opacity="1" stop-color="rgb(60.71167%, 33.204651%, 97.021484%)" offset="0.132812"/><stop stop-opacity="1" stop-color="rgb(61.064148%, 33.265686%, 96.841431%)" offset="0.140625"/><stop stop-opacity="1" stop-color="rgb(61.416626%, 33.326721%, 96.659851%)" offset="0.148437"/><stop stop-opacity="1" stop-color="rgb(61.769104%, 33.387756%, 96.479797%)" offset="0.15625"/><stop stop-opacity="1" stop-color="rgb(62.121582%, 33.448792%, 96.299744%)" offset="0.164062"/><stop stop-opacity="1" stop-color="rgb(62.47406%, 33.509827%, 96.11969%)" offset="0.171875"/><stop stop-opacity="1" stop-color="rgb(62.826538%, 33.570862%, 95.93811%)" offset="0.179687"/><stop stop-opacity="1" stop-color="rgb(63.179016%, 33.631897%, 95.758057%)" offset="0.1875"/><stop stop-opacity="1" stop-color="rgb(63.531494%, 33.691406%, 95.578003%)" offset="0.195312"/><stop stop-opacity="1" stop-color="rgb(63.883972%, 33.752441%, 95.396423%)" offset="0.203125"/><stop stop-opacity="1" stop-color="rgb(64.234924%, 33.813477%, 95.21637%)" offset="0.210937"/><stop stop-opacity="1" stop-color="rgb(64.587402%, 33.874512%, 95.036316%)" offset="0.21875"/><stop stop-opacity="1" stop-color="rgb(64.93988%, 33.935547%, 94.856262%)" offset="0.226562"/><stop stop-opacity="1" stop-color="rgb(65.292358%, 33.996582%, 94.674683%)" offset="0.234375"/><stop stop-opacity="1" stop-color="rgb(65.644836%, 34.057617%, 94.494629%)" offset="0.242187"/><stop stop-opacity="1" stop-color="rgb(65.997314%, 34.118652%, 94.314575%)" offset="0.25"/><stop stop-opacity="1" stop-color="rgb(66.349792%, 34.179688%, 94.134521%)" offset="0.257812"/><stop stop-opacity="1" stop-color="rgb(66.702271%, 34.240723%, 93.952942%)" offset="0.265625"/><stop stop-opacity="1" stop-color="rgb(67.054749%, 34.301758%, 93.772888%)" offset="0.273438"/><stop stop-opacity="1" stop-color="rgb(67.407227%, 34.362793%, 93.592834%)" offset="0.28125"/><stop stop-opacity="1" stop-color="rgb(67.759705%, 34.423828%, 93.411255%)" offset="0.289062"/><stop stop-opacity="1" stop-color="rgb(68.112183%, 34.484863%, 93.231201%)" offset="0.296875"/><stop stop-opacity="1" stop-color="rgb(68.463135%, 34.545898%, 93.051147%)" offset="0.304688"/><stop stop-opacity="1" stop-color="rgb(68.815613%, 34.606934%, 92.871094%)" offset="0.3125"/><stop stop-opacity="1" stop-color="rgb(69.168091%, 34.666443%, 92.689514%)" offset="0.320312"/><stop stop-opacity="1" stop-color="rgb(69.520569%, 34.727478%, 92.50946%)" offset="0.328125"/><stop stop-opacity="1" stop-color="rgb(69.873047%, 34.788513%, 92.329407%)" offset="0.335938"/><stop stop-opacity="1" stop-color="rgb(70.225525%, 34.849548%, 92.149353%)" offset="0.34375"/><stop stop-opacity="1" stop-color="rgb(70.578003%, 34.910583%, 91.967773%)" offset="0.351562"/><stop stop-opacity="1" stop-color="rgb(70.930481%, 34.971619%, 91.78772%)" offset="0.359375"/><stop stop-opacity="1" stop-color="rgb(71.282959%, 35.032654%, 91.607666%)" offset="0.367188"/><stop stop-opacity="1" stop-color="rgb(71.635437%, 35.093689%, 91.426086%)" offset="0.375"/><stop stop-opacity="1" stop-color="rgb(71.987915%, 35.154724%, 91.246033%)" offset="0.382812"/><stop stop-opacity="1" stop-color="rgb(72.338867%, 35.215759%, 91.065979%)" offset="0.390625"/><stop stop-opacity="1" stop-color="rgb(72.691345%, 35.276794%, 90.885925%)" offset="0.398438"/><stop stop-opacity="1" stop-color="rgb(73.043823%, 35.33783%, 90.704346%)" offset="0.40625"/><stop stop-opacity="1" stop-color="rgb(73.396301%, 35.398865%, 90.524292%)" offset="0.414062"/><stop stop-opacity="1" stop-color="rgb(73.748779%, 35.4599%, 90.344238%)" offset="0.421875"/><stop stop-opacity="1" stop-color="rgb(74.101257%, 35.520935%, 90.164185%)" offset="0.429688"/><stop stop-opacity="1" stop-color="rgb(74.453735%, 35.58197%, 89.982605%)" offset="0.4375"/><stop stop-opacity="1" stop-color="rgb(74.806213%, 35.641479%, 89.802551%)" offset="0.445312"/><stop stop-opacity="1" stop-color="rgb(75.158691%, 35.702515%, 89.622498%)" offset="0.453125"/><stop stop-opacity="1" stop-color="rgb(75.511169%, 35.76355%, 89.440918%)" offset="0.460938"/><stop stop-opacity="1" stop-color="rgb(75.863647%, 35.824585%, 89.260864%)" offset="0.46875"/><stop stop-opacity="1" stop-color="rgb(76.2146%, 35.88562%, 89.080811%)" offset="0.476562"/><stop stop-opacity="1" stop-color="rgb(76.567078%, 35.946655%, 88.900757%)" offset="0.484375"/><stop stop-opacity="1" stop-color="rgb(76.919556%, 36.00769%, 88.719177%)" offset="0.492188"/><stop stop-opacity="1" stop-color="rgb(77.272034%, 36.068726%, 88.539124%)" offset="0.5"/><stop stop-opacity="1" stop-color="rgb(77.624512%, 36.129761%, 88.35907%)" offset="0.507812"/><stop stop-opacity="1" stop-color="rgb(77.97699%, 36.190796%, 88.179016%)" offset="0.515625"/><stop stop-opacity="1" stop-color="rgb(78.329468%, 36.251831%, 87.997437%)" offset="0.523438"/><stop stop-opacity="1" stop-color="rgb(78.681946%, 36.312866%, 87.817383%)" offset="0.53125"/><stop stop-opacity="1" stop-color="rgb(79.034424%, 36.373901%, 87.637329%)" offset="0.539062"/><stop stop-opacity="1" stop-color="rgb(79.386902%, 36.434937%, 87.45575%)" offset="0.546875"/><stop stop-opacity="1" stop-color="rgb(79.73938%, 36.495972%, 87.275696%)" offset="0.554688"/><stop stop-opacity="1" stop-color="rgb(80.091858%, 36.555481%, 87.095642%)" offset="0.5625"/><stop stop-opacity="1" stop-color="rgb(80.44281%, 36.616516%, 86.915588%)" offset="0.570312"/><stop stop-opacity="1" stop-color="rgb(80.795288%, 36.677551%, 86.734009%)" offset="0.578125"/><stop stop-opacity="1" stop-color="rgb(81.147766%, 36.738586%, 86.553955%)" offset="0.585938"/><stop stop-opacity="1" stop-color="rgb(81.500244%, 36.799622%, 86.373901%)" offset="0.59375"/><stop stop-opacity="1" stop-color="rgb(81.852722%, 36.860657%, 86.193848%)" offset="0.601562"/><stop stop-opacity="1" stop-color="rgb(82.2052%, 36.921692%, 86.012268%)" offset="0.609375"/><stop stop-opacity="1" stop-color="rgb(82.557678%, 36.982727%, 85.832214%)" offset="0.617188"/><stop stop-opacity="1" stop-color="rgb(82.910156%, 37.043762%, 85.652161%)" offset="0.625"/><stop stop-opacity="1" stop-color="rgb(83.262634%, 37.104797%, 85.470581%)" offset="0.632812"/><stop stop-opacity="1" stop-color="rgb(83.615112%, 37.165833%, 85.290527%)" offset="0.640625"/><stop stop-opacity="1" stop-color="rgb(83.96759%, 37.226868%, 85.110474%)" offset="0.648438"/><stop stop-opacity="1" stop-color="rgb(84.318542%, 37.287903%, 84.93042%)" offset="0.65625"/><stop stop-opacity="1" stop-color="rgb(84.671021%, 37.348938%, 84.74884%)" offset="0.664062"/><stop stop-opacity="1" stop-color="rgb(85.023499%, 37.409973%, 84.568787%)" offset="0.671875"/><stop stop-opacity="1" stop-color="rgb(85.375977%, 37.471008%, 84.388733%)" offset="0.679688"/><stop stop-opacity="1" stop-color="rgb(85.728455%, 37.530518%, 84.208679%)" offset="0.6875"/><stop stop-opacity="1" stop-color="rgb(86.080933%, 37.591553%, 84.0271%)" offset="0.695312"/><stop stop-opacity="1" stop-color="rgb(86.433411%, 37.652588%, 83.847046%)" offset="0.703125"/><stop stop-opacity="1" stop-color="rgb(86.785889%, 37.713623%, 83.666992%)" offset="0.710938"/><stop stop-opacity="1" stop-color="rgb(87.138367%, 37.774658%, 83.485413%)" offset="0.71875"/><stop stop-opacity="1" stop-color="rgb(87.490845%, 37.835693%, 83.305359%)" offset="0.726562"/><stop stop-opacity="1" stop-color="rgb(87.843323%, 37.896729%, 83.125305%)" offset="0.734375"/><stop stop-opacity="1" stop-color="rgb(88.194275%, 37.957764%, 82.945251%)" offset="0.742188"/><stop stop-opacity="1" stop-color="rgb(88.546753%, 38.018799%, 82.763672%)" offset="0.75"/><stop stop-opacity="1" stop-color="rgb(88.899231%, 38.079834%, 82.583618%)" offset="0.757812"/><stop stop-opacity="1" stop-color="rgb(89.251709%, 38.140869%, 82.403564%)" offset="0.765625"/><stop stop-opacity="1" stop-color="rgb(89.604187%, 38.201904%, 82.223511%)" offset="0.773438"/><stop stop-opacity="1" stop-color="rgb(89.956665%, 38.262939%, 82.041931%)" offset="0.78125"/><stop stop-opacity="1" stop-color="rgb(90.309143%, 38.323975%, 81.861877%)" offset="0.789062"/><stop stop-opacity="1" stop-color="rgb(90.661621%, 38.38501%, 81.681824%)" offset="0.796875"/><stop stop-opacity="1" stop-color="rgb(91.014099%, 38.444519%, 81.500244%)" offset="0.804688"/><stop stop-opacity="1" stop-color="rgb(91.366577%, 38.505554%, 81.32019%)" offset="0.8125"/><stop stop-opacity="1" stop-color="rgb(91.719055%, 38.566589%, 81.140137%)" offset="0.820312"/><stop stop-opacity="1" stop-color="rgb(92.071533%, 38.627625%, 80.960083%)" offset="0.828125"/><stop stop-opacity="1" stop-color="rgb(92.422485%, 38.68866%, 80.778503%)" offset="0.835938"/><stop stop-opacity="1" stop-color="rgb(92.774963%, 38.749695%, 80.59845%)" offset="0.84375"/><stop stop-opacity="1" stop-color="rgb(93.127441%, 38.81073%, 80.418396%)" offset="0.851562"/><stop stop-opacity="1" stop-color="rgb(93.479919%, 38.871765%, 80.238342%)" offset="0.859375"/><stop stop-opacity="1" stop-color="rgb(93.832397%, 38.9328%, 80.056763%)" offset="0.867188"/><stop stop-opacity="1" stop-color="rgb(94.184875%, 38.993835%, 79.876709%)" offset="0.875"/><stop stop-opacity="1" stop-color="rgb(94.537354%, 39.054871%, 79.696655%)" offset="0.882812"/><stop stop-opacity="1" stop-color="rgb(94.889832%, 39.115906%, 79.515076%)" offset="0.890625"/><stop stop-opacity="1" stop-color="rgb(95.24231%, 39.176941%, 79.335022%)" offset="0.898438"/><stop stop-opacity="1" stop-color="rgb(95.594788%, 39.237976%, 79.154968%)" offset="0.90625"/><stop stop-opacity="1" stop-color="rgb(95.947266%, 39.299011%, 78.974915%)" offset="0.914062"/><stop stop-opacity="1" stop-color="rgb(96.298218%, 39.360046%, 78.793335%)" offset="0.921875"/><stop stop-opacity="1" stop-color="rgb(96.650696%, 39.419556%, 78.613281%)" offset="0.929688"/><stop stop-opacity="1" stop-color="rgb(97.003174%, 39.480591%, 78.433228%)" offset="0.9375"/><stop stop-opacity="1" stop-color="rgb(97.355652%, 39.541626%, 78.253174%)" offset="0.945312"/><stop stop-opacity="1" stop-color="rgb(97.70813%, 39.602661%, 78.071594%)" offset="0.953125"/><stop stop-opacity="1" stop-color="rgb(98.060608%, 39.663696%, 77.891541%)" offset="0.960938"/><stop stop-opacity="1" stop-color="rgb(98.413086%, 39.724731%, 77.711487%)" offset="0.96875"/><stop stop-opacity="1" stop-color="rgb(98.765564%, 39.785767%, 77.531433%)" offset="0.976562"/><stop stop-opacity="1" stop-color="rgb(99.118042%, 39.846802%, 77.349854%)" offset="0.984375"/><stop stop-opacity="1" stop-color="rgb(99.47052%, 39.907837%, 77.1698%)" offset="0.992188"/><stop stop-opacity="1" stop-color="rgb(99.822998%, 39.968872%, 76.989746%)" offset="1"/></linearGradient><clipPath id="ecd3037a9a"><path d="M 111.964844 93.082031 L 262.714844 93.082031 L 262.714844 282 L 111.964844 282 Z M 111.964844 93.082031 " clip-rule="nonzero"/></clipPath></defs><g clip-path="url(#21aa222944)"><g clip-path="url(#278ee54599)"><path fill="url(#8f8b4dc2a1)" d="M 37.5 37.5 L 37.5 337.5 L 337.5 337.5 L 337.5 37.5 Z M 37.5 37.5 " fill-rule="nonzero"/></g></g><g clip-path="url(#ecd3037a9a)"><path fill="#ffffff" d="M 118.265625 105.671875 C 118.265625 102.203125 121.089844 99.378906 124.558594 99.378906 L 234.707031 99.378906 L 234.707031 108.820312 C 234.707031 115.765625 240.347656 121.40625 247.292969 121.40625 L 256.734375 121.40625 L 256.734375 269.320312 C 256.734375 272.785156 253.90625 275.613281 250.441406 275.613281 L 124.558594 275.613281 C 121.089844 275.613281 118.265625 272.785156 118.265625 269.320312 Z M 252.285156 115.113281 L 247.292969 115.113281 C 243.828125 115.113281 241 112.285156 241 108.820312 L 241 103.828125 Z M 124.558594 281.90625 L 250.441406 281.90625 C 257.386719 281.90625 263.03125 276.265625 263.03125 269.320312 L 263.03125 120.867188 C 263.03125 119.539062 262.746094 118.273438 262.230469 117.09375 C 262.195312 117.019531 262.15625 116.96875 262.132812 116.90625 C 261.664062 115.910156 261.0625 114.988281 260.261719 114.191406 L 241.921875 95.847656 C 241.121094 95.050781 240.1875 94.433594 239.191406 93.96875 C 239.132812 93.945312 239.09375 93.90625 239.03125 93.894531 C 237.851562 93.367188 236.574219 93.082031 235.246094 93.082031 L 124.558594 93.082031 C 117.613281 93.082031 111.96875 98.726562 111.96875 105.671875 L 111.96875 269.320312 C 111.96875 276.265625 117.613281 281.90625 124.558594 281.90625 " fill-opacity="1" fill-rule="nonzero"/></g><path fill="#ffffff" d="M 137.148438 137.140625 C 137.148438 135.410156 138.558594 133.996094 140.292969 133.996094 L 159.175781 133.996094 C 160.527344 133.996094 161.660156 134.855469 162.101562 136.058594 L 152.882812 145.28125 L 148.8125 141.210938 C 147.582031 139.980469 145.59375 139.980469 144.363281 141.210938 C 143.132812 142.441406 143.132812 144.433594 144.363281 145.660156 L 150.65625 151.957031 C 151.273438 152.570312 152.070312 152.878906 152.882812 152.878906 C 153.691406 152.878906 154.492188 152.570312 155.105469 151.957031 L 162.324219 144.738281 L 162.324219 156.023438 C 162.324219 157.757812 160.910156 159.171875 159.175781 159.171875 L 140.292969 159.171875 C 138.558594 159.171875 137.148438 157.757812 137.148438 156.023438 Z M 140.292969 165.464844 L 159.175781 165.464844 C 164.386719 165.464844 168.617188 161.238281 168.617188 156.023438 L 168.617188 138.445312 L 177.136719 129.925781 C 178.367188 128.695312 178.367188 126.707031 177.136719 125.476562 C 175.90625 124.246094 173.914062 124.246094 172.6875 125.476562 L 166.6875 131.476562 C 164.953125 129.199219 162.25 127.699219 159.175781 127.699219 L 140.292969 127.699219 C 135.082031 127.699219 130.851562 131.929688 130.851562 137.140625 L 130.851562 156.023438 C 130.851562 161.238281 135.082031 165.464844 140.292969 165.464844 " fill-opacity="1" fill-rule="nonzero"/><path fill="#ffffff" d="M 137.148438 181.199219 C 137.148438 179.46875 138.558594 178.054688 140.292969 178.054688 L 159.175781 178.054688 C 160.910156 178.054688 162.324219 179.46875 162.324219 181.199219 L 162.324219 200.082031 C 162.324219 201.816406 160.910156 203.230469 159.175781 203.230469 L 140.292969 203.230469 C 138.558594 203.230469 137.148438 201.816406 137.148438 200.082031 Z M 140.292969 209.523438 L 159.175781 209.523438 C 164.386719 209.523438 168.617188 205.296875 168.617188 200.082031 L 168.617188 181.199219 C 168.617188 175.988281 164.386719 171.761719 159.175781 171.761719 L 140.292969 171.761719 C 135.082031 171.761719 130.851562 175.988281 130.851562 181.199219 L 130.851562 200.082031 C 130.851562 205.296875 135.082031 209.523438 140.292969 209.523438 " fill-opacity="1" fill-rule="nonzero"/><path fill="#ffffff" d="M 137.148438 225.261719 C 137.148438 223.527344 138.558594 222.113281 140.292969 222.113281 L 159.175781 222.113281 C 160.910156 222.113281 162.324219 223.527344 162.324219 225.261719 L 162.324219 244.140625 C 162.324219 245.875 160.910156 247.289062 159.175781 247.289062 L 140.292969 247.289062 C 138.558594 247.289062 137.148438 245.875 137.148438 244.140625 Z M 140.292969 253.582031 L 159.175781 253.582031 C 164.386719 253.582031 168.617188 249.355469 168.617188 244.140625 L 168.617188 225.261719 C 168.617188 220.046875 164.386719 215.820312 159.175781 215.820312 L 140.292969 215.820312 C 135.082031 215.820312 130.851562 220.046875 130.851562 225.261719 L 130.851562 244.140625 C 130.851562 249.355469 135.082031 253.582031 140.292969 253.582031 " fill-opacity="1" fill-rule="nonzero"/><path fill="#ffffff" d="M 187.5 140.289062 L 241 140.289062 C 242.734375 140.289062 244.148438 138.875 244.148438 137.140625 C 244.148438 135.410156 242.734375 133.996094 241 133.996094 L 187.5 133.996094 C 185.765625 133.996094 184.351562 135.410156 184.351562 137.140625 C 184.351562 138.875 185.765625 140.289062 187.5 140.289062 " fill-opacity="1" fill-rule="nonzero"/><path fill="#ffffff" d="M 187.5 156.023438 L 218.96875 156.023438 C 220.703125 156.023438 222.117188 154.609375 222.117188 152.878906 C 222.117188 151.144531 220.703125 149.730469 218.96875 149.730469 L 187.5 149.730469 C 185.765625 149.730469 184.351562 151.144531 184.351562 152.878906 C 184.351562 154.609375 185.765625 156.023438 187.5 156.023438 " fill-opacity="1" fill-rule="nonzero"/><path fill="#ffffff" d="M 187.5 184.347656 L 241 184.347656 C 242.734375 184.347656 244.148438 182.933594 244.148438 181.199219 C 244.148438 179.46875 242.734375 178.054688 241 178.054688 L 187.5 178.054688 C 185.765625 178.054688 184.351562 179.46875 184.351562 181.199219 C 184.351562 182.933594 185.765625 184.347656 187.5 184.347656 " fill-opacity="1" fill-rule="nonzero"/><path fill="#ffffff" d="M 187.5 200.082031 L 218.96875 200.082031 C 220.703125 200.082031 222.117188 198.667969 222.117188 196.9375 C 222.117188 195.203125 220.703125 193.789062 218.96875 193.789062 L 187.5 193.789062 C 185.765625 193.789062 184.351562 195.203125 184.351562 196.9375 C 184.351562 198.667969 185.765625 200.082031 187.5 200.082031 " fill-opacity="1" fill-rule="nonzero"/><path fill="#ffffff" d="M 187.5 228.40625 L 241 228.40625 C 242.734375 228.40625 244.148438 226.992188 244.148438 225.261719 C 244.148438 223.527344 242.734375 222.113281 241 222.113281 L 187.5 222.113281 C 185.765625 222.113281 184.351562 223.527344 184.351562 225.261719 C 184.351562 226.992188 185.765625 228.40625 187.5 228.40625 " fill-opacity="1" fill-rule="nonzero"/><path fill="#ffffff" d="M 187.5 244.140625 L 218.96875 244.140625 C 220.703125 244.140625 222.117188 242.730469 222.117188 240.996094 C 222.117188 239.261719 220.703125 237.847656 218.96875 237.847656 L 187.5 237.847656 C 185.765625 237.847656 184.351562 239.261719 184.351562 240.996094 C 184.351562 242.730469 185.765625 244.140625 187.5 244.140625 " fill-opacity="1" fill-rule="nonzero"/></svg>