<svg xmlns="http://www.w3.org/2000/svg" xmlns:xlink="http://www.w3.org/1999/xlink" width="500" zoomAndPan="magnify" viewBox="0 0 375 374.999991" height="500" preserveAspectRatio="xMidYMid meet" version="1.2"><defs><clipPath id="3ff5e2e643"><path d="M 75 0 L 300 0 C 341.421875 0 375 33.578125 375 75 L 375 300 C 375 341.421875 341.421875 375 300 375 L 75 375 C 33.578125 375 0 341.421875 0 300 L 0 75 C 0 33.578125 33.578125 0 75 0 Z M 75 0 "/></clipPath><linearGradient x1="0" gradientTransform="matrix(1.464844,0,0,1.464844,0.0000045,0)" y1="128" x2="255.999988" gradientUnits="userSpaceOnUse" y2="128" id="eb5edb2a2c"><stop style="stop-color:#560bad;stop-opacity:1;" offset="0"/><stop style="stop-color:#570bad;stop-opacity:1;" offset="0.00390625"/><stop style="stop-color:#570bad;stop-opacity:1;" offset="0.0078125"/><stop style="stop-color:#580bac;stop-opacity:1;" offset="0.0117188"/><stop style="stop-color:#580bac;stop-opacity:1;" offset="0.015625"/><stop style="stop-color:#590bac;stop-opacity:1;" offset="0.0195313"/><stop style="stop-color:#5a0cac;stop-opacity:1;" offset="0.0234375"/><stop style="stop-color:#5a0cac;stop-opacity:1;" offset="0.0273438"/><stop style="stop-color:#5b0cac;stop-opacity:1;" offset="0.03125"/><stop style="stop-color:#5c0cab;stop-opacity:1;" offset="0.0351562"/><stop style="stop-color:#5c0cab;stop-opacity:1;" offset="0.0390625"/><stop style="stop-color:#5d0cab;stop-opacity:1;" offset="0.0429688"/><stop style="stop-color:#5d0cab;stop-opacity:1;" offset="0.046875"/><stop style="stop-color:#5e0cab;stop-opacity:1;" offset="0.0507812"/><stop style="stop-color:#5f0cab;stop-opacity:1;" offset="0.0546875"/><stop style="stop-color:#5f0cab;stop-opacity:1;" offset="0.0585938"/><stop style="stop-color:#600daa;stop-opacity:1;" offset="0.0625"/><stop style="stop-color:#610daa;stop-opacity:1;" offset="0.0664062"/><stop style="stop-color:#610daa;stop-opacity:1;" offset="0.0703125"/><stop style="stop-color:#620daa;stop-opacity:1;" offset="0.0742188"/><stop style="stop-color:#630daa;stop-opacity:1;" offset="0.078125"/><stop style="stop-color:#630daa;stop-opacity:1;" offset="0.0820312"/><stop style="stop-color:#640da9;stop-opacity:1;" offset="0.0859375"/><stop style="stop-color:#640da9;stop-opacity:1;" offset="0.0898438"/><stop style="stop-color:#650da9;stop-opacity:1;" offset="0.09375"/><stop style="stop-color:#660ea9;stop-opacity:1;" offset="0.0976562"/><stop style="stop-color:#660ea9;stop-opacity:1;" offset="0.101562"/><stop style="stop-color:#670ea9;stop-opacity:1;" offset="0.105469"/><stop style="stop-color:#680ea9;stop-opacity:1;" offset="0.109375"/><stop style="stop-color:#680ea8;stop-opacity:1;" offset="0.113281"/><stop style="stop-color:#690ea8;stop-opacity:1;" offset="0.117188"/><stop style="stop-color:#690ea8;stop-opacity:1;" offset="0.121094"/><stop style="stop-color:#6a0ea8;stop-opacity:1;" offset="0.125"/><stop style="stop-color:#6b0ea8;stop-opacity:1;" offset="0.128906"/><stop style="stop-color:#6b0ea8;stop-opacity:1;" offset="0.132812"/><stop style="stop-color:#6c0fa7;stop-opacity:1;" offset="0.136719"/><stop style="stop-color:#6d0fa7;stop-opacity:1;" offset="0.140625"/><stop style="stop-color:#6d0fa7;stop-opacity:1;" offset="0.144531"/><stop style="stop-color:#6e0fa7;stop-opacity:1;" offset="0.148438"/><stop style="stop-color:#6e0fa7;stop-opacity:1;" offset="0.152344"/><stop style="stop-color:#6f0fa7;stop-opacity:1;" offset="0.15625"/><stop style="stop-color:#700fa7;stop-opacity:1;" offset="0.160156"/><stop style="stop-color:#700fa6;stop-opacity:1;" offset="0.164062"/><stop style="stop-color:#710fa6;stop-opacity:1;" offset="0.167969"/><stop style="stop-color:#720fa6;stop-opacity:1;" offset="0.171875"/><stop style="stop-color:#7210a6;stop-opacity:1;" offset="0.175781"/><stop style="stop-color:#7310a6;stop-opacity:1;" offset="0.179688"/><stop style="stop-color:#7410a6;stop-opacity:1;" offset="0.183594"/><stop style="stop-color:#7410a5;stop-opacity:1;" offset="0.1875"/><stop style="stop-color:#7510a5;stop-opacity:1;" offset="0.191406"/><stop style="stop-color:#7510a5;stop-opacity:1;" offset="0.195312"/><stop style="stop-color:#7610a5;stop-opacity:1;" offset="0.199219"/><stop style="stop-color:#7710a5;stop-opacity:1;" offset="0.203125"/><stop style="stop-color:#7710a5;stop-opacity:1;" offset="0.207031"/><stop style="stop-color:#7810a4;stop-opacity:1;" offset="0.210938"/><stop style="stop-color:#7911a4;stop-opacity:1;" offset="0.214844"/><stop style="stop-color:#7911a4;stop-opacity:1;" offset="0.21875"/><stop style="stop-color:#7a11a4;stop-opacity:1;" offset="0.222656"/><stop style="stop-color:#7a11a4;stop-opacity:1;" offset="0.226562"/><stop style="stop-color:#7b11a4;stop-opacity:1;" offset="0.230469"/><stop style="stop-color:#7c11a4;stop-opacity:1;" offset="0.234375"/><stop style="stop-color:#7c11a3;stop-opacity:1;" offset="0.238281"/><stop style="stop-color:#7d11a3;stop-opacity:1;" offset="0.242188"/><stop style="stop-color:#7e11a3;stop-opacity:1;" offset="0.246094"/><stop style="stop-color:#7e11a3;stop-opacity:1;" offset="0.25"/><stop style="stop-color:#7f12a3;stop-opacity:1;" offset="0.253906"/><stop style="stop-color:#7f12a3;stop-opacity:1;" offset="0.257812"/><stop style="stop-color:#8012a2;stop-opacity:1;" offset="0.261719"/><stop style="stop-color:#8112a2;stop-opacity:1;" offset="0.265625"/><stop style="stop-color:#8112a2;stop-opacity:1;" offset="0.269531"/><stop style="stop-color:#8212a2;stop-opacity:1;" offset="0.273438"/><stop style="stop-color:#8312a2;stop-opacity:1;" offset="0.277344"/><stop style="stop-color:#8312a2;stop-opacity:1;" offset="0.28125"/><stop style="stop-color:#8412a2;stop-opacity:1;" offset="0.285156"/><stop style="stop-color:#8512a1;stop-opacity:1;" offset="0.289063"/><stop style="stop-color:#8513a1;stop-opacity:1;" offset="0.292969"/><stop style="stop-color:#8613a1;stop-opacity:1;" offset="0.296875"/><stop style="stop-color:#8613a1;stop-opacity:1;" offset="0.300781"/><stop style="stop-color:#8713a1;stop-opacity:1;" offset="0.304688"/><stop style="stop-color:#8813a1;stop-opacity:1;" offset="0.308594"/><stop style="stop-color:#8813a0;stop-opacity:1;" offset="0.3125"/><stop style="stop-color:#8913a0;stop-opacity:1;" offset="0.316406"/><stop style="stop-color:#8a13a0;stop-opacity:1;" offset="0.320312"/><stop style="stop-color:#8a13a0;stop-opacity:1;" offset="0.324219"/><stop style="stop-color:#8b13a0;stop-opacity:1;" offset="0.328125"/><stop style="stop-color:#8b14a0;stop-opacity:1;" offset="0.332031"/><stop style="stop-color:#8c14a0;stop-opacity:1;" offset="0.335938"/><stop style="stop-color:#8d149f;stop-opacity:1;" offset="0.339844"/><stop style="stop-color:#8d149f;stop-opacity:1;" offset="0.34375"/><stop style="stop-color:#8e149f;stop-opacity:1;" offset="0.347656"/><stop style="stop-color:#8f149f;stop-opacity:1;" offset="0.351562"/><stop style="stop-color:#8f149f;stop-opacity:1;" offset="0.355469"/><stop style="stop-color:#90149f;stop-opacity:1;" offset="0.359375"/><stop style="stop-color:#90149e;stop-opacity:1;" offset="0.363281"/><stop style="stop-color:#91159e;stop-opacity:1;" offset="0.367188"/><stop style="stop-color:#92159e;stop-opacity:1;" offset="0.371094"/><stop style="stop-color:#92159e;stop-opacity:1;" offset="0.375"/><stop style="stop-color:#93159e;stop-opacity:1;" offset="0.378906"/><stop style="stop-color:#94159e;stop-opacity:1;" offset="0.382812"/><stop style="stop-color:#94159e;stop-opacity:1;" offset="0.386719"/><stop style="stop-color:#95159d;stop-opacity:1;" offset="0.390625"/><stop style="stop-color:#96159d;stop-opacity:1;" offset="0.394531"/><stop style="stop-color:#96159d;stop-opacity:1;" offset="0.398438"/><stop style="stop-color:#97159d;stop-opacity:1;" offset="0.402344"/><stop style="stop-color:#97169d;stop-opacity:1;" offset="0.40625"/><stop style="stop-color:#98169d;stop-opacity:1;" offset="0.410156"/><stop style="stop-color:#99169c;stop-opacity:1;" offset="0.414062"/><stop style="stop-color:#99169c;stop-opacity:1;" offset="0.417969"/><stop style="stop-color:#9a169c;stop-opacity:1;" offset="0.421875"/><stop style="stop-color:#9b169c;stop-opacity:1;" offset="0.425781"/><stop style="stop-color:#9b169c;stop-opacity:1;" offset="0.429688"/><stop style="stop-color:#9c169c;stop-opacity:1;" offset="0.433594"/><stop style="stop-color:#9c169b;stop-opacity:1;" offset="0.4375"/><stop style="stop-color:#9d169b;stop-opacity:1;" offset="0.441406"/><stop style="stop-color:#9e179b;stop-opacity:1;" offset="0.445312"/><stop style="stop-color:#9e179b;stop-opacity:1;" offset="0.449219"/><stop style="stop-color:#9f179b;stop-opacity:1;" offset="0.453125"/><stop style="stop-color:#a0179b;stop-opacity:1;" offset="0.457031"/><stop style="stop-color:#a0179b;stop-opacity:1;" offset="0.460938"/><stop style="stop-color:#a1179a;stop-opacity:1;" offset="0.464844"/><stop style="stop-color:#a1179a;stop-opacity:1;" offset="0.46875"/><stop style="stop-color:#a2179a;stop-opacity:1;" offset="0.472656"/><stop style="stop-color:#a3179a;stop-opacity:1;" offset="0.476562"/><stop style="stop-color:#a3179a;stop-opacity:1;" offset="0.480469"/><stop style="stop-color:#a4189a;stop-opacity:1;" offset="0.484375"/><stop style="stop-color:#a51899;stop-opacity:1;" offset="0.488281"/><stop style="stop-color:#a51899;stop-opacity:1;" offset="0.492188"/><stop style="stop-color:#a61899;stop-opacity:1;" offset="0.496094"/><stop style="stop-color:#a71899;stop-opacity:1;" offset="0.5"/><stop style="stop-color:#a71899;stop-opacity:1;" offset="0.503906"/><stop style="stop-color:#a81899;stop-opacity:1;" offset="0.507812"/><stop style="stop-color:#a81899;stop-opacity:1;" offset="0.511719"/><stop style="stop-color:#a91898;stop-opacity:1;" offset="0.515625"/><stop style="stop-color:#aa1898;stop-opacity:1;" offset="0.519531"/><stop style="stop-color:#aa1998;stop-opacity:1;" offset="0.523438"/><stop style="stop-color:#ab1998;stop-opacity:1;" offset="0.527344"/><stop style="stop-color:#ac1998;stop-opacity:1;" offset="0.53125"/><stop style="stop-color:#ac1998;stop-opacity:1;" offset="0.535156"/><stop style="stop-color:#ad1997;stop-opacity:1;" offset="0.539062"/><stop style="stop-color:#ad1997;stop-opacity:1;" offset="0.542969"/><stop style="stop-color:#ae1997;stop-opacity:1;" offset="0.546875"/><stop style="stop-color:#af1997;stop-opacity:1;" offset="0.550781"/><stop style="stop-color:#af1997;stop-opacity:1;" offset="0.554688"/><stop style="stop-color:#b01997;stop-opacity:1;" offset="0.558594"/><stop style="stop-color:#b11a97;stop-opacity:1;" offset="0.5625"/><stop style="stop-color:#b11a96;stop-opacity:1;" offset="0.566406"/><stop style="stop-color:#b21a96;stop-opacity:1;" offset="0.570312"/><stop style="stop-color:#b21a96;stop-opacity:1;" offset="0.574219"/><stop style="stop-color:#b31a96;stop-opacity:1;" offset="0.578125"/><stop style="stop-color:#b41a96;stop-opacity:1;" offset="0.582031"/><stop style="stop-color:#b41a96;stop-opacity:1;" offset="0.585938"/><stop style="stop-color:#b51a95;stop-opacity:1;" offset="0.589844"/><stop style="stop-color:#b61a95;stop-opacity:1;" offset="0.59375"/><stop style="stop-color:#b61b95;stop-opacity:1;" offset="0.597656"/><stop style="stop-color:#b71b95;stop-opacity:1;" offset="0.601563"/><stop style="stop-color:#b81b95;stop-opacity:1;" offset="0.605469"/><stop style="stop-color:#b81b95;stop-opacity:1;" offset="0.609375"/><stop style="stop-color:#b91b94;stop-opacity:1;" offset="0.613281"/><stop style="stop-color:#b91b94;stop-opacity:1;" offset="0.617188"/><stop style="stop-color:#ba1b94;stop-opacity:1;" offset="0.621094"/><stop style="stop-color:#bb1b94;stop-opacity:1;" offset="0.625"/><stop style="stop-color:#bb1b94;stop-opacity:1;" offset="0.628906"/><stop style="stop-color:#bc1b94;stop-opacity:1;" offset="0.632812"/><stop style="stop-color:#bd1c94;stop-opacity:1;" offset="0.636719"/><stop style="stop-color:#bd1c93;stop-opacity:1;" offset="0.640625"/><stop style="stop-color:#be1c93;stop-opacity:1;" offset="0.644531"/><stop style="stop-color:#be1c93;stop-opacity:1;" offset="0.648438"/><stop style="stop-color:#bf1c93;stop-opacity:1;" offset="0.652344"/><stop style="stop-color:#c01c93;stop-opacity:1;" offset="0.65625"/><stop style="stop-color:#c01c93;stop-opacity:1;" offset="0.660156"/><stop style="stop-color:#c11c92;stop-opacity:1;" offset="0.664063"/><stop style="stop-color:#c21c92;stop-opacity:1;" offset="0.667969"/><stop style="stop-color:#c21c92;stop-opacity:1;" offset="0.671875"/><stop style="stop-color:#c31d92;stop-opacity:1;" offset="0.675781"/><stop style="stop-color:#c31d92;stop-opacity:1;" offset="0.679688"/><stop style="stop-color:#c41d92;stop-opacity:1;" offset="0.683594"/><stop style="stop-color:#c51d92;stop-opacity:1;" offset="0.6875"/><stop style="stop-color:#c51d91;stop-opacity:1;" offset="0.691406"/><stop style="stop-color:#c61d91;stop-opacity:1;" offset="0.695313"/><stop style="stop-color:#c71d91;stop-opacity:1;" offset="0.699219"/><stop style="stop-color:#c71d91;stop-opacity:1;" offset="0.703125"/><stop style="stop-color:#c81d91;stop-opacity:1;" offset="0.707031"/><stop style="stop-color:#c91d91;stop-opacity:1;" offset="0.710938"/><stop style="stop-color:#c91e90;stop-opacity:1;" offset="0.714844"/><stop style="stop-color:#ca1e90;stop-opacity:1;" offset="0.71875"/><stop style="stop-color:#ca1e90;stop-opacity:1;" offset="0.722656"/><stop style="stop-color:#cb1e90;stop-opacity:1;" offset="0.726562"/><stop style="stop-color:#cc1e90;stop-opacity:1;" offset="0.730469"/><stop style="stop-color:#cc1e90;stop-opacity:1;" offset="0.734375"/><stop style="stop-color:#cd1e90;stop-opacity:1;" offset="0.738281"/><stop style="stop-color:#ce1e8f;stop-opacity:1;" offset="0.742188"/><stop style="stop-color:#ce1e8f;stop-opacity:1;" offset="0.746094"/><stop style="stop-color:#cf1e8f;stop-opacity:1;" offset="0.75"/><stop style="stop-color:#cf1f8f;stop-opacity:1;" offset="0.753906"/><stop style="stop-color:#d01f8f;stop-opacity:1;" offset="0.757812"/><stop style="stop-color:#d11f8f;stop-opacity:1;" offset="0.761719"/><stop style="stop-color:#d11f8e;stop-opacity:1;" offset="0.765625"/><stop style="stop-color:#d21f8e;stop-opacity:1;" offset="0.769531"/><stop style="stop-color:#d31f8e;stop-opacity:1;" offset="0.773438"/><stop style="stop-color:#d31f8e;stop-opacity:1;" offset="0.777344"/><stop style="stop-color:#d41f8e;stop-opacity:1;" offset="0.78125"/><stop style="stop-color:#d41f8e;stop-opacity:1;" offset="0.785156"/><stop style="stop-color:#d51f8d;stop-opacity:1;" offset="0.789062"/><stop style="stop-color:#d6208d;stop-opacity:1;" offset="0.792969"/><stop style="stop-color:#d6208d;stop-opacity:1;" offset="0.796875"/><stop style="stop-color:#d7208d;stop-opacity:1;" offset="0.800781"/><stop style="stop-color:#d8208d;stop-opacity:1;" offset="0.804688"/><stop style="stop-color:#d8208d;stop-opacity:1;" offset="0.808594"/><stop style="stop-color:#d9208d;stop-opacity:1;" offset="0.8125"/><stop style="stop-color:#da208c;stop-opacity:1;" offset="0.816406"/><stop style="stop-color:#da208c;stop-opacity:1;" offset="0.820313"/><stop style="stop-color:#db208c;stop-opacity:1;" offset="0.824219"/><stop style="stop-color:#db218c;stop-opacity:1;" offset="0.828125"/><stop style="stop-color:#dc218c;stop-opacity:1;" offset="0.832031"/><stop style="stop-color:#dd218c;stop-opacity:1;" offset="0.835938"/><stop style="stop-color:#dd218b;stop-opacity:1;" offset="0.839844"/><stop style="stop-color:#de218b;stop-opacity:1;" offset="0.84375"/><stop style="stop-color:#df218b;stop-opacity:1;" offset="0.847656"/><stop style="stop-color:#df218b;stop-opacity:1;" offset="0.851562"/><stop style="stop-color:#e0218b;stop-opacity:1;" offset="0.855469"/><stop style="stop-color:#e0218b;stop-opacity:1;" offset="0.859375"/><stop style="stop-color:#e1218b;stop-opacity:1;" offset="0.863281"/><stop style="stop-color:#e2228a;stop-opacity:1;" offset="0.867188"/><stop style="stop-color:#e2228a;stop-opacity:1;" offset="0.871094"/><stop style="stop-color:#e3228a;stop-opacity:1;" offset="0.875"/><stop style="stop-color:#e4228a;stop-opacity:1;" offset="0.878906"/><stop style="stop-color:#e4228a;stop-opacity:1;" offset="0.882812"/><stop style="stop-color:#e5228a;stop-opacity:1;" offset="0.886719"/><stop style="stop-color:#e52289;stop-opacity:1;" offset="0.890625"/><stop style="stop-color:#e62289;stop-opacity:1;" offset="0.894531"/><stop style="stop-color:#e72289;stop-opacity:1;" offset="0.898438"/><stop style="stop-color:#e72289;stop-opacity:1;" offset="0.902344"/><stop style="stop-color:#e82389;stop-opacity:1;" offset="0.90625"/><stop style="stop-color:#e92389;stop-opacity:1;" offset="0.910156"/><stop style="stop-color:#e92389;stop-opacity:1;" offset="0.914062"/><stop style="stop-color:#ea2388;stop-opacity:1;" offset="0.917969"/><stop style="stop-color:#eb2388;stop-opacity:1;" offset="0.921875"/><stop style="stop-color:#eb2388;stop-opacity:1;" offset="0.925781"/><stop style="stop-color:#ec2388;stop-opacity:1;" offset="0.929688"/><stop style="stop-color:#ec2388;stop-opacity:1;" offset="0.933594"/><stop style="stop-color:#ed2388;stop-opacity:1;" offset="0.9375"/><stop style="stop-color:#ee2387;stop-opacity:1;" offset="0.941406"/><stop style="stop-color:#ee2487;stop-opacity:1;" offset="0.945312"/><stop style="stop-color:#ef2487;stop-opacity:1;" offset="0.949219"/><stop style="stop-color:#f02487;stop-opacity:1;" offset="0.953125"/><stop style="stop-color:#f02487;stop-opacity:1;" offset="0.957031"/><stop style="stop-color:#f12487;stop-opacity:1;" offset="0.960938"/><stop style="stop-color:#f12487;stop-opacity:1;" offset="0.964844"/><stop style="stop-color:#f22486;stop-opacity:1;" offset="0.96875"/><stop style="stop-color:#f32486;stop-opacity:1;" offset="0.972656"/><stop style="stop-color:#f32486;stop-opacity:1;" offset="0.976562"/><stop style="stop-color:#f42486;stop-opacity:1;" offset="0.980469"/><stop style="stop-color:#f52586;stop-opacity:1;" offset="0.984375"/><stop style="stop-color:#f52586;stop-opacity:1;" offset="0.988281"/><stop style="stop-color:#f62585;stop-opacity:1;" offset="0.992188"/><stop style="stop-color:#f62585;stop-opacity:1;" offset="0.996094"/><stop style="stop-color:#f72585;stop-opacity:1;" offset="1"/></linearGradient><clipPath id="d2399e2c1e"><path d="M 183 37.5 L 192 37.5 L 192 55 L 183 55 Z M 183 37.5 "/></clipPath><clipPath id="8d5d42e549"><path d="M 183 320 L 192 320 L 192 337.5 L 183 337.5 Z M 183 320 "/></clipPath><clipPath id="ed736906db"><path d="M 37.5 183 L 55 183 L 55 192 L 37.5 192 Z M 37.5 183 "/></clipPath><clipPath id="85df8eab9f"><path d="M 320 183 L 337.5 183 L 337.5 192 L 320 192 Z M 320 183 "/></clipPath><clipPath id="ac758695ff"><path d="M 134 155.617188 L 161 155.617188 L 161 183 L 134 183 Z M 134 155.617188 "/></clipPath><clipPath id="6781bdc232"><path d="M 168 160 L 240.996094 160 L 240.996094 164 L 168 164 Z M 168 160 "/></clipPath><clipPath id="d971f181ed"><path d="M 168 198 L 240.996094 198 L 240.996094 203 L 168 203 Z M 168 198 "/></clipPath><clipPath id="7b339386da"><path d="M 134 232 L 161 232 L 161 259.117188 L 134 259.117188 Z M 134 232 "/></clipPath><clipPath id="7183224508"><path d="M 168 237 L 240.996094 237 L 240.996094 241 L 168 241 Z M 168 237 "/></clipPath><clipPath id="6878641f26"><path d="M 117.589844 99.835938 L 257.089844 99.835938 L 257.089844 275 L 117.589844 275 Z M 117.589844 99.835938 "/></clipPath><clipPath id="5a526042c0"><path d="M 135.441406 155.617188 L 167.691406 155.617188 L 167.691406 180.367188 L 135.441406 180.367188 Z M 135.441406 155.617188 "/></clipPath><clipPath id="e02f6f27c2"><path d="M 135.441406 195 L 167.691406 195 L 167.691406 219.722656 L 135.441406 219.722656 Z M 135.441406 195 "/></clipPath></defs><g id="84b50d2c23"><g clip-rule="nonzero" clip-path="url(#3ff5e2e643)"><rect x="0" width="375" y="0" height="374.999991" style="fill:url(#linear0);stroke:none;"/></g><path style=" stroke:none;fill-rule:nonzero;fill:#ffffff;fill-opacity:1;" d="M 186.050781 39.65625 L 188.988281 39.65625 L 188.988281 52.539062 L 186.050781 52.539062 Z M 186.050781 39.65625 "/><g clip-rule="nonzero" clip-path="url(#d2399e2c1e)"><path style=" stroke:none;fill-rule:nonzero;fill:#ffffff;fill-opacity:1;" d="M 183.894531 37.5 L 191.148438 37.5 L 191.148438 54.699219 L 183.894531 54.699219 Z M 183.894531 37.5 "/></g><path style=" stroke:none;fill-rule:nonzero;fill:#ffffff;fill-opacity:1;" d="M 186.050781 322.460938 L 188.988281 322.460938 L 188.988281 335.34375 L 186.050781 335.34375 Z M 186.050781 322.460938 "/><g clip-rule="nonzero" clip-path="url(#8d5d42e549)"><path style=" stroke:none;fill-rule:nonzero;fill:#ffffff;fill-opacity:1;" d="M 183.894531 320.300781 L 191.148438 320.300781 L 191.148438 337.5 L 183.894531 337.5 Z M 183.894531 320.300781 "/></g><path style=" stroke:none;fill-rule:nonzero;fill:#ffffff;fill-opacity:1;" d="M 147.820312 45.089844 L 150.660156 44.332031 L 153.992188 56.773438 L 151.15625 57.535156 Z M 147.820312 45.089844 "/><path style=" stroke:none;fill-rule:nonzero;fill:#ffffff;fill-opacity:1;" d="M 221.023438 318.257812 L 223.859375 317.496094 L 227.195312 329.941406 L 224.355469 330.699219 Z M 221.023438 318.257812 "/><path style=" stroke:none;fill-rule:nonzero;fill:#ffffff;fill-opacity:1;" d="M 112.316406 60.191406 L 114.863281 58.722656 L 121.304688 69.878906 L 118.757812 71.347656 Z M 112.316406 60.191406 "/><path style=" stroke:none;fill-rule:nonzero;fill:#ffffff;fill-opacity:1;" d="M 253.714844 305.101562 L 256.257812 303.632812 L 262.699219 314.789062 L 260.15625 316.257812 Z M 253.714844 305.101562 "/><path style=" stroke:none;fill-rule:nonzero;fill:#ffffff;fill-opacity:1;" d="M 81.925781 84.007812 L 84 81.929688 L 93.109375 91.039062 L 91.035156 93.117188 Z M 81.925781 84.007812 "/><path style=" stroke:none;fill-rule:nonzero;fill:#ffffff;fill-opacity:1;" d="M 281.902344 283.980469 L 283.980469 281.902344 L 293.089844 291.011719 L 291.011719 293.089844 Z M 281.902344 283.980469 "/><path style=" stroke:none;fill-rule:nonzero;fill:#ffffff;fill-opacity:1;" d="M 58.734375 114.847656 L 60.203125 112.304688 L 71.359375 118.746094 L 69.890625 121.289062 Z M 58.734375 114.847656 "/><path style=" stroke:none;fill-rule:nonzero;fill:#ffffff;fill-opacity:1;" d="M 303.644531 256.257812 L 305.113281 253.710938 L 316.269531 260.152344 L 314.800781 262.699219 Z M 303.644531 256.257812 "/><path style=" stroke:none;fill-rule:nonzero;fill:#ffffff;fill-opacity:1;" d="M 44.316406 150.667969 L 45.074219 147.828125 L 57.519531 151.164062 L 56.757812 154 Z M 44.316406 150.667969 "/><path style=" stroke:none;fill-rule:nonzero;fill:#ffffff;fill-opacity:1;" d="M 317.496094 223.875 L 318.253906 221.035156 L 330.699219 224.371094 L 329.9375 227.207031 Z M 317.496094 223.875 "/><path style=" stroke:none;fill-rule:nonzero;fill:#ffffff;fill-opacity:1;" d="M 39.65625 186.050781 L 52.539062 186.050781 L 52.539062 188.988281 L 39.65625 188.988281 Z M 39.65625 186.050781 "/><g clip-rule="nonzero" clip-path="url(#ed736906db)"><path style=" stroke:none;fill-rule:nonzero;fill:#ffffff;fill-opacity:1;" d="M 37.5 183.894531 L 54.699219 183.894531 L 54.699219 191.148438 L 37.5 191.148438 Z M 37.5 183.894531 "/></g><path style=" stroke:none;fill-rule:nonzero;fill:#ffffff;fill-opacity:1;" d="M 322.460938 186.050781 L 335.34375 186.050781 L 335.34375 188.988281 L 322.460938 188.988281 Z M 322.460938 186.050781 "/><g clip-rule="nonzero" clip-path="url(#85df8eab9f)"><path style=" stroke:none;fill-rule:nonzero;fill:#ffffff;fill-opacity:1;" d="M 320.300781 183.894531 L 337.5 183.894531 L 337.5 191.148438 L 320.300781 191.148438 Z M 320.300781 183.894531 "/></g><path style=" stroke:none;fill-rule:nonzero;fill:#ffffff;fill-opacity:1;" d="M 44.324219 224.363281 L 56.765625 221.03125 L 57.527344 223.867188 L 45.082031 227.203125 Z M 44.324219 224.363281 "/><path style=" stroke:none;fill-rule:nonzero;fill:#ffffff;fill-opacity:1;" d="M 317.488281 151.164062 L 329.933594 147.828125 L 330.691406 150.667969 L 318.25 154 Z M 317.488281 151.164062 "/><path style=" stroke:none;fill-rule:nonzero;fill:#ffffff;fill-opacity:1;" d="M 58.734375 260.167969 L 69.890625 253.726562 L 71.359375 256.269531 L 60.203125 262.710938 Z M 58.734375 260.167969 "/><path style=" stroke:none;fill-rule:nonzero;fill:#ffffff;fill-opacity:1;" d="M 303.644531 118.769531 L 314.800781 112.328125 L 316.269531 114.871094 L 305.113281 121.3125 Z M 303.644531 118.769531 "/><path style=" stroke:none;fill-rule:nonzero;fill:#ffffff;fill-opacity:1;" d="M 81.929688 291.015625 L 91.035156 281.90625 L 93.113281 283.984375 L 84.003906 293.09375 Z M 81.929688 291.015625 "/><path style=" stroke:none;fill-rule:nonzero;fill:#ffffff;fill-opacity:1;" d="M 281.898438 91.035156 L 291.007812 81.925781 L 293.085938 84.003906 L 283.976562 93.113281 Z M 281.898438 91.035156 "/><path style=" stroke:none;fill-rule:nonzero;fill:#ffffff;fill-opacity:1;" d="M 112.3125 314.828125 L 118.753906 303.671875 L 121.296875 305.140625 L 114.855469 316.296875 Z M 112.3125 314.828125 "/><path style=" stroke:none;fill-rule:nonzero;fill:#ffffff;fill-opacity:1;" d="M 253.71875 69.917969 L 260.160156 58.761719 L 262.707031 60.230469 L 256.265625 71.386719 Z M 253.71875 69.917969 "/><path style=" stroke:none;fill-rule:nonzero;fill:#ffffff;fill-opacity:1;" d="M 147.816406 329.949219 L 151.152344 317.507812 L 153.988281 318.265625 L 150.65625 330.710938 Z M 147.816406 329.949219 "/><path style=" stroke:none;fill-rule:nonzero;fill:#ffffff;fill-opacity:1;" d="M 221.023438 56.769531 L 224.359375 44.324219 L 227.195312 45.085938 L 223.863281 57.53125 Z M 221.023438 56.769531 "/><g clip-rule="nonzero" clip-path="url(#ac758695ff)"><path style=" stroke:none;fill-rule:nonzero;fill:#ffffff;fill-opacity:1;" d="M 154.679688 155.679688 L 139.765625 155.679688 C 139.390625 155.679688 139.019531 155.714844 138.652344 155.789062 C 138.28125 155.863281 137.925781 155.972656 137.578125 156.113281 C 137.230469 156.257812 136.902344 156.433594 136.589844 156.644531 C 136.28125 156.851562 135.992188 157.089844 135.726562 157.355469 C 135.460938 157.621094 135.222656 157.90625 135.015625 158.21875 C 134.804688 158.53125 134.628906 158.859375 134.488281 159.207031 C 134.34375 159.554688 134.234375 159.910156 134.160156 160.277344 C 134.085938 160.648438 134.050781 161.019531 134.050781 161.394531 L 134.050781 176.308594 C 134.050781 176.683594 134.085938 177.054688 134.160156 177.421875 C 134.234375 177.789062 134.34375 178.148438 134.488281 178.492188 C 134.628906 178.839844 134.804688 179.167969 135.015625 179.480469 C 135.222656 179.792969 135.460938 180.082031 135.726562 180.347656 C 135.992188 180.613281 136.28125 180.847656 136.589844 181.058594 C 136.902344 181.265625 137.230469 181.441406 137.578125 181.585938 C 137.925781 181.730469 138.28125 181.839844 138.652344 181.910156 C 139.019531 181.984375 139.390625 182.023438 139.765625 182.023438 L 154.679688 182.023438 C 155.054688 182.023438 155.425781 181.988281 155.796875 181.914062 C 156.164062 181.839844 156.519531 181.734375 156.867188 181.589844 C 157.214844 181.445312 157.542969 181.269531 157.855469 181.0625 C 158.167969 180.851562 158.457031 180.617188 158.722656 180.351562 C 158.988281 180.085938 159.226562 179.796875 159.433594 179.484375 C 159.640625 179.171875 159.816406 178.84375 159.960938 178.496094 C 160.105469 178.148438 160.210938 177.792969 160.285156 177.421875 C 160.359375 177.054688 160.394531 176.683594 160.394531 176.308594 L 160.394531 161.394531 C 160.394531 161.019531 160.359375 160.644531 160.285156 160.277344 C 160.210938 159.910156 160.105469 159.550781 159.960938 159.207031 C 159.816406 158.859375 159.640625 158.527344 159.433594 158.214844 C 159.226562 157.90625 158.988281 157.617188 158.722656 157.351562 C 158.457031 157.085938 158.167969 156.847656 157.855469 156.640625 C 157.542969 156.429688 157.214844 156.253906 156.867188 156.113281 C 156.519531 155.96875 156.164062 155.859375 155.796875 155.789062 C 155.425781 155.714844 155.054688 155.679688 154.679688 155.679688 Z M 154.679688 155.679688 "/></g><g clip-rule="nonzero" clip-path="url(#6781bdc232)"><path style=" stroke:none;fill-rule:nonzero;fill:#ffffff;fill-opacity:1;" d="M 170.792969 163.859375 L 238.816406 163.859375 C 239.066406 163.855469 239.304688 163.804688 239.535156 163.707031 C 239.765625 163.605469 239.96875 163.46875 240.144531 163.289062 C 240.320312 163.113281 240.453125 162.90625 240.546875 162.675781 C 240.644531 162.445312 240.691406 162.203125 240.691406 161.953125 C 240.691406 161.703125 240.644531 161.464844 240.546875 161.230469 C 240.453125 161 240.320312 160.796875 240.144531 160.617188 C 239.96875 160.4375 239.765625 160.300781 239.535156 160.203125 C 239.304688 160.105469 239.066406 160.054688 238.816406 160.050781 L 170.792969 160.050781 C 170.542969 160.054688 170.300781 160.105469 170.074219 160.203125 C 169.84375 160.300781 169.640625 160.4375 169.464844 160.617188 C 169.289062 160.796875 169.152344 161 169.058594 161.230469 C 168.964844 161.464844 168.917969 161.703125 168.917969 161.953125 C 168.917969 162.203125 168.964844 162.445312 169.058594 162.675781 C 169.152344 162.90625 169.289062 163.113281 169.464844 163.289062 C 169.640625 163.46875 169.84375 163.605469 170.074219 163.707031 C 170.300781 163.804688 170.542969 163.855469 170.792969 163.859375 Z M 170.792969 163.859375 "/></g><path style=" stroke:none;fill-rule:nonzero;fill:#ffffff;fill-opacity:1;" d="M 170.792969 177.648438 L 206.546875 177.648438 C 206.796875 177.644531 207.035156 177.59375 207.265625 177.496094 C 207.496094 177.398438 207.699219 177.261719 207.875 177.082031 C 208.050781 176.902344 208.183594 176.699219 208.28125 176.46875 C 208.375 176.234375 208.421875 175.996094 208.421875 175.746094 C 208.421875 175.496094 208.375 175.253906 208.28125 175.023438 C 208.183594 174.792969 208.050781 174.585938 207.875 174.40625 C 207.699219 174.230469 207.496094 174.089844 207.265625 173.992188 C 207.035156 173.894531 206.796875 173.84375 206.546875 173.839844 L 170.792969 173.839844 C 170.542969 173.84375 170.300781 173.894531 170.074219 173.992188 C 169.84375 174.089844 169.640625 174.230469 169.464844 174.40625 C 169.289062 174.585938 169.152344 174.792969 169.058594 175.023438 C 168.964844 175.253906 168.914062 175.496094 168.914062 175.746094 C 168.914062 175.996094 168.964844 176.234375 169.058594 176.46875 C 169.152344 176.699219 169.289062 176.902344 169.464844 177.082031 C 169.640625 177.261719 169.84375 177.398438 170.074219 177.496094 C 170.300781 177.59375 170.542969 177.644531 170.792969 177.648438 Z M 170.792969 177.648438 "/><path style=" stroke:none;fill-rule:nonzero;fill:#ffffff;fill-opacity:1;" d="M 139.765625 194.230469 L 154.679688 194.230469 C 155.054688 194.230469 155.425781 194.269531 155.792969 194.34375 C 156.164062 194.414062 156.519531 194.523438 156.867188 194.667969 C 157.214844 194.8125 157.542969 194.988281 157.855469 195.195312 C 158.167969 195.402344 158.457031 195.640625 158.722656 195.90625 C 158.984375 196.171875 159.222656 196.460938 159.429688 196.773438 C 159.640625 197.082031 159.816406 197.414062 159.960938 197.761719 C 160.101562 198.105469 160.210938 198.464844 160.285156 198.832031 C 160.359375 199.199219 160.394531 199.570312 160.394531 199.945312 L 160.394531 214.878906 C 160.394531 215.253906 160.359375 215.628906 160.285156 215.996094 C 160.210938 216.363281 160.101562 216.722656 159.960938 217.066406 C 159.816406 217.414062 159.640625 217.742188 159.429688 218.054688 C 159.222656 218.367188 158.984375 218.65625 158.722656 218.921875 C 158.457031 219.1875 158.167969 219.421875 157.855469 219.632812 C 157.542969 219.839844 157.214844 220.015625 156.867188 220.160156 C 156.519531 220.304688 156.164062 220.414062 155.792969 220.484375 C 155.425781 220.558594 155.054688 220.59375 154.679688 220.59375 L 139.765625 220.59375 C 139.390625 220.59375 139.019531 220.558594 138.648438 220.484375 C 138.28125 220.414062 137.925781 220.304688 137.578125 220.160156 C 137.230469 220.015625 136.902344 219.839844 136.589844 219.632812 C 136.277344 219.421875 135.988281 219.1875 135.722656 218.921875 C 135.457031 218.65625 135.222656 218.367188 135.011719 218.054688 C 134.804688 217.742188 134.628906 217.414062 134.484375 217.066406 C 134.34375 216.722656 134.234375 216.363281 134.160156 215.996094 C 134.085938 215.628906 134.050781 215.253906 134.050781 214.878906 L 134.050781 199.945312 C 134.050781 199.570312 134.085938 199.199219 134.160156 198.832031 C 134.234375 198.464844 134.34375 198.105469 134.484375 197.761719 C 134.628906 197.414062 134.804688 197.082031 135.011719 196.773438 C 135.222656 196.460938 135.457031 196.171875 135.722656 195.90625 C 135.988281 195.640625 136.277344 195.402344 136.589844 195.195312 C 136.902344 194.988281 137.230469 194.8125 137.578125 194.667969 C 137.925781 194.523438 138.28125 194.414062 138.648438 194.34375 C 139.019531 194.269531 139.390625 194.230469 139.765625 194.230469 Z M 139.765625 194.230469 "/><g clip-rule="nonzero" clip-path="url(#d971f181ed)"><path style=" stroke:none;fill-rule:nonzero;fill:#ffffff;fill-opacity:1;" d="M 238.816406 198.613281 L 170.792969 198.613281 C 170.542969 198.617188 170.300781 198.667969 170.074219 198.765625 C 169.84375 198.863281 169.640625 199.003906 169.464844 199.179688 C 169.289062 199.359375 169.152344 199.5625 169.058594 199.796875 C 168.964844 200.027344 168.917969 200.269531 168.917969 200.519531 C 168.917969 200.769531 168.964844 201.007812 169.058594 201.242188 C 169.152344 201.472656 169.289062 201.675781 169.464844 201.855469 C 169.640625 202.03125 169.84375 202.171875 170.074219 202.269531 C 170.300781 202.367188 170.542969 202.417969 170.792969 202.421875 L 238.816406 202.421875 C 239.066406 202.417969 239.304688 202.367188 239.535156 202.269531 C 239.765625 202.171875 239.96875 202.03125 240.144531 201.855469 C 240.320312 201.675781 240.453125 201.472656 240.546875 201.238281 C 240.644531 201.007812 240.691406 200.769531 240.691406 200.519531 C 240.691406 200.269531 240.644531 200.027344 240.546875 199.796875 C 240.453125 199.566406 240.320312 199.359375 240.144531 199.179688 C 239.96875 199.003906 239.765625 198.863281 239.535156 198.765625 C 239.304688 198.667969 239.066406 198.617188 238.816406 198.613281 Z M 238.816406 198.613281 "/></g><path style=" stroke:none;fill-rule:nonzero;fill:#ffffff;fill-opacity:1;" d="M 170.792969 216.214844 L 206.546875 216.214844 C 206.796875 216.210938 207.035156 216.160156 207.265625 216.0625 C 207.496094 215.964844 207.699219 215.824219 207.875 215.648438 C 208.050781 215.46875 208.183594 215.261719 208.28125 215.03125 C 208.375 214.800781 208.421875 214.558594 208.421875 214.308594 C 208.421875 214.058594 208.375 213.816406 208.28125 213.585938 C 208.183594 213.355469 208.050781 213.148438 207.875 212.972656 C 207.699219 212.792969 207.496094 212.65625 207.265625 212.558594 C 207.035156 212.460938 206.796875 212.40625 206.546875 212.40625 L 170.792969 212.40625 C 170.542969 212.410156 170.300781 212.460938 170.074219 212.558594 C 169.84375 212.65625 169.640625 212.792969 169.464844 212.972656 C 169.289062 213.152344 169.152344 213.355469 169.058594 213.585938 C 168.964844 213.820312 168.917969 214.058594 168.917969 214.308594 C 168.917969 214.558594 168.964844 214.800781 169.058594 215.03125 C 169.152344 215.261719 169.289062 215.46875 169.464844 215.644531 C 169.640625 215.824219 169.84375 215.960938 170.074219 216.0625 C 170.300781 216.160156 170.542969 216.210938 170.792969 216.214844 Z M 170.792969 216.214844 "/><g clip-rule="nonzero" clip-path="url(#7b339386da)"><path style=" stroke:none;fill-rule:nonzero;fill:#ffffff;fill-opacity:1;" d="M 154.679688 232.804688 L 139.765625 232.804688 C 139.390625 232.804688 139.019531 232.84375 138.652344 232.914062 C 138.28125 232.988281 137.925781 233.097656 137.578125 233.242188 C 137.230469 233.382812 136.902344 233.5625 136.589844 233.769531 C 136.28125 233.976562 135.992188 234.214844 135.726562 234.480469 C 135.460938 234.746094 135.222656 235.035156 135.015625 235.34375 C 134.804688 235.65625 134.628906 235.988281 134.488281 236.332031 C 134.34375 236.679688 134.234375 237.035156 134.160156 237.40625 C 134.085938 237.773438 134.050781 238.144531 134.050781 238.519531 L 134.050781 253.433594 C 134.050781 253.808594 134.085938 254.179688 134.160156 254.546875 C 134.234375 254.917969 134.34375 255.273438 134.488281 255.621094 C 134.628906 255.964844 134.804688 256.296875 135.015625 256.609375 C 135.222656 256.917969 135.460938 257.207031 135.726562 257.472656 C 135.992188 257.738281 136.28125 257.976562 136.589844 258.183594 C 136.902344 258.390625 137.230469 258.570312 137.578125 258.710938 C 137.925781 258.855469 138.28125 258.964844 138.652344 259.039062 C 139.019531 259.113281 139.390625 259.148438 139.765625 259.148438 L 154.679688 259.148438 C 155.054688 259.148438 155.425781 259.113281 155.796875 259.039062 C 156.164062 258.96875 156.519531 258.859375 156.867188 258.714844 C 157.214844 258.570312 157.542969 258.394531 157.855469 258.1875 C 158.167969 257.980469 158.457031 257.742188 158.722656 257.476562 C 158.988281 257.210938 159.226562 256.921875 159.433594 256.609375 C 159.640625 256.296875 159.816406 255.96875 159.960938 255.621094 C 160.105469 255.273438 160.210938 254.917969 160.285156 254.550781 C 160.359375 254.179688 160.394531 253.808594 160.394531 253.433594 L 160.394531 238.519531 C 160.394531 238.144531 160.359375 237.773438 160.285156 237.402344 C 160.210938 237.035156 160.105469 236.679688 159.960938 236.332031 C 159.816406 235.984375 159.640625 235.65625 159.433594 235.34375 C 159.226562 235.03125 158.988281 234.742188 158.722656 234.476562 C 158.457031 234.210938 158.167969 233.972656 157.855469 233.765625 C 157.542969 233.558594 157.214844 233.382812 156.867188 233.238281 C 156.519531 233.09375 156.164062 232.984375 155.796875 232.914062 C 155.425781 232.839844 155.054688 232.804688 154.679688 232.804688 Z M 154.679688 232.804688 "/></g><g clip-rule="nonzero" clip-path="url(#7183224508)"><path style=" stroke:none;fill-rule:nonzero;fill:#ffffff;fill-opacity:1;" d="M 238.816406 237.175781 L 170.792969 237.175781 C 170.542969 237.179688 170.300781 237.230469 170.074219 237.332031 C 169.84375 237.429688 169.640625 237.566406 169.464844 237.746094 C 169.289062 237.921875 169.152344 238.128906 169.058594 238.359375 C 168.964844 238.589844 168.917969 238.832031 168.917969 239.082031 C 168.917969 239.332031 168.964844 239.574219 169.058594 239.804688 C 169.152344 240.035156 169.289062 240.242188 169.464844 240.417969 C 169.640625 240.597656 169.84375 240.734375 170.074219 240.832031 C 170.300781 240.933594 170.542969 240.984375 170.792969 240.988281 L 238.816406 240.988281 C 239.066406 240.984375 239.304688 240.933594 239.535156 240.832031 C 239.765625 240.734375 239.96875 240.597656 240.144531 240.417969 C 240.320312 240.242188 240.453125 240.035156 240.546875 239.804688 C 240.644531 239.574219 240.691406 239.332031 240.691406 239.082031 C 240.691406 238.832031 240.644531 238.589844 240.546875 238.359375 C 240.453125 238.128906 240.320312 237.925781 240.144531 237.746094 C 239.96875 237.566406 239.765625 237.429688 239.535156 237.332031 C 239.304688 237.234375 239.066406 237.179688 238.816406 237.175781 Z M 238.816406 237.175781 "/></g><path style=" stroke:none;fill-rule:nonzero;fill:#ffffff;fill-opacity:1;" d="M 206.546875 250.96875 L 170.792969 250.96875 C 170.542969 250.972656 170.300781 251.023438 170.074219 251.121094 C 169.84375 251.21875 169.640625 251.359375 169.464844 251.535156 C 169.289062 251.714844 169.152344 251.917969 169.058594 252.152344 C 168.964844 252.382812 168.914062 252.625 168.914062 252.875 C 168.914062 253.125 168.964844 253.363281 169.058594 253.597656 C 169.152344 253.828125 169.289062 254.03125 169.464844 254.210938 C 169.640625 254.390625 169.84375 254.527344 170.074219 254.625 C 170.300781 254.722656 170.542969 254.773438 170.792969 254.777344 L 206.546875 254.777344 C 206.796875 254.773438 207.035156 254.722656 207.265625 254.625 C 207.496094 254.527344 207.699219 254.390625 207.875 254.210938 C 208.050781 254.03125 208.183594 253.828125 208.28125 253.597656 C 208.375 253.363281 208.421875 253.125 208.421875 252.875 C 208.421875 252.625 208.375 252.382812 208.28125 252.152344 C 208.183594 251.917969 208.050781 251.714844 207.875 251.535156 C 207.699219 251.359375 207.496094 251.21875 207.265625 251.121094 C 207.035156 251.023438 206.796875 250.972656 206.546875 250.96875 Z M 206.546875 250.96875 "/><g clip-rule="nonzero" clip-path="url(#6878641f26)"><path style=" stroke:none;fill-rule:nonzero;fill:#ffffff;fill-opacity:1;" d="M 257.035156 137.964844 L 257.035156 137.417969 C 257.035156 137.417969 257.035156 137.144531 256.898438 137.007812 L 256.898438 136.871094 C 256.898438 136.734375 256.761719 136.597656 256.761719 136.460938 L 256.761719 136.324219 C 256.625 136.1875 256.488281 136.050781 256.488281 135.914062 L 220.957031 100.382812 C 220.820312 100.246094 220.683594 100.109375 220.546875 100.109375 L 220.410156 100.109375 C 220.273438 99.972656 220.136719 99.972656 220 99.972656 L 219.863281 99.972656 C 219.726562 99.972656 219.589844 99.835938 219.453125 99.835938 C 219.316406 99.835938 219.042969 99.835938 218.90625 99.835938 L 125.839844 99.835938 C 121.332031 99.835938 117.640625 103.527344 117.640625 108.035156 L 117.640625 266.5625 C 117.640625 271.074219 121.332031 274.761719 125.839844 274.761719 L 248.835938 274.761719 C 253.347656 274.761719 257.035156 271.074219 257.035156 266.5625 Z M 251.570312 266.425781 C 251.570312 267.929688 250.339844 269.160156 248.835938 269.160156 L 125.839844 269.160156 C 124.335938 269.160156 123.105469 267.929688 123.105469 266.425781 L 123.105469 107.898438 C 123.105469 106.394531 124.335938 105.164062 125.839844 105.164062 L 216.035156 105.164062 L 216.035156 128.808594 C 216.035156 135.367188 221.367188 140.699219 227.925781 140.699219 L 251.570312 140.699219 Z M 251.570312 266.425781 "/></g><g clip-rule="nonzero" clip-path="url(#5a526042c0)"><path style=" stroke:none;fill-rule:nonzero;fill:#efefef;fill-opacity:1;" d="M 145.660156 175.050781 L 138.050781 167.445312 L 135.46875 170.027344 L 145.660156 180.214844 L 167.554688 158.320312 L 164.972656 155.738281 Z M 145.660156 175.050781 "/></g><g clip-rule="nonzero" clip-path="url(#e02f6f27c2)"><path style=" stroke:none;fill-rule:nonzero;fill:#efefef;fill-opacity:1;" d="M 145.660156 214.410156 L 138.050781 206.800781 L 135.46875 209.382812 L 145.660156 219.570312 L 167.554688 197.675781 L 164.972656 195.09375 Z M 145.660156 214.410156 "/></g></g></svg>