<svg xmlns="http://www.w3.org/2000/svg" xmlns:xlink="http://www.w3.org/1999/xlink" width="500" zoomAndPan="magnify" viewBox="0 0 375 374.999991" height="500" preserveAspectRatio="xMidYMid meet" version="1.2"><defs><clipPath id="d0c79f2694"><path d="M 75 0 L 300 0 C 341.421875 0 375 33.578125 375 75 L 375 300 C 375 341.421875 341.421875 375 300 375 L 75 375 C 33.578125 375 0 341.421875 0 300 L 0 75 C 0 33.578125 33.578125 0 75 0 Z M 75 0 "/></clipPath><clipPath id="c014d7df8d"><path d="M 75 0 L 300 0 C 341.421875 0 375 33.578125 375 75 L 375 300 C 375 341.421875 341.421875 375 300 375 L 75 375 C 33.578125 375 0 341.421875 0 300 L 0 75 C 0 33.578125 33.578125 0 75 0 Z M 75 0 "/></clipPath><linearGradient x1="0" gradientTransform="matrix(1.464844,0,0,1.464844,0.0000045,0)" y1="128" x2="256" gradientUnits="userSpaceOnUse" y2="128" id="2bcaa918f1"><stop style="stop-color:#560bad;stop-opacity:1;" offset="0"/><stop style="stop-color:#570bad;stop-opacity:1;" offset="0.00390625"/><stop style="stop-color:#570bad;stop-opacity:1;" offset="0.0078125"/><stop style="stop-color:#580bad;stop-opacity:1;" offset="0.0117188"/><stop style="stop-color:#590bac;stop-opacity:1;" offset="0.015625"/><stop style="stop-color:#590bac;stop-opacity:1;" offset="0.0195312"/><stop style="stop-color:#5a0cac;stop-opacity:1;" offset="0.0234375"/><stop style="stop-color:#5a0cac;stop-opacity:1;" offset="0.0273438"/><stop style="stop-color:#5b0cac;stop-opacity:1;" offset="0.03125"/><stop style="stop-color:#5c0cac;stop-opacity:1;" offset="0.0351562"/><stop style="stop-color:#5c0cab;stop-opacity:1;" offset="0.0390625"/><stop style="stop-color:#5d0cab;stop-opacity:1;" offset="0.0429688"/><stop style="stop-color:#5e0cab;stop-opacity:1;" offset="0.046875"/><stop style="stop-color:#5e0cab;stop-opacity:1;" offset="0.0507812"/><stop style="stop-color:#5f0cab;stop-opacity:1;" offset="0.0546875"/><stop style="stop-color:#5f0dab;stop-opacity:1;" offset="0.0585938"/><stop style="stop-color:#600daa;stop-opacity:1;" offset="0.0625"/><stop style="stop-color:#610daa;stop-opacity:1;" offset="0.0664062"/><stop style="stop-color:#610daa;stop-opacity:1;" offset="0.0703125"/><stop style="stop-color:#620daa;stop-opacity:1;" offset="0.0742188"/><stop style="stop-color:#630daa;stop-opacity:1;" offset="0.078125"/><stop style="stop-color:#630daa;stop-opacity:1;" offset="0.0820312"/><stop style="stop-color:#640daa;stop-opacity:1;" offset="0.0859375"/><stop style="stop-color:#640da9;stop-opacity:1;" offset="0.0898438"/><stop style="stop-color:#650da9;stop-opacity:1;" offset="0.09375"/><stop style="stop-color:#660ea9;stop-opacity:1;" offset="0.0976562"/><stop style="stop-color:#660ea9;stop-opacity:1;" offset="0.101562"/><stop style="stop-color:#670ea9;stop-opacity:1;" offset="0.105469"/><stop style="stop-color:#680ea9;stop-opacity:1;" offset="0.109375"/><stop style="stop-color:#680ea8;stop-opacity:1;" offset="0.113281"/><stop style="stop-color:#690ea8;stop-opacity:1;" offset="0.117188"/><stop style="stop-color:#6a0ea8;stop-opacity:1;" offset="0.121094"/><stop style="stop-color:#6a0ea8;stop-opacity:1;" offset="0.125"/><stop style="stop-color:#6b0ea8;stop-opacity:1;" offset="0.128906"/><stop style="stop-color:#6b0ea8;stop-opacity:1;" offset="0.132812"/><stop style="stop-color:#6c0fa8;stop-opacity:1;" offset="0.136719"/><stop style="stop-color:#6d0fa7;stop-opacity:1;" offset="0.140625"/><stop style="stop-color:#6d0fa7;stop-opacity:1;" offset="0.144531"/><stop style="stop-color:#6e0fa7;stop-opacity:1;" offset="0.148438"/><stop style="stop-color:#6f0fa7;stop-opacity:1;" offset="0.152344"/><stop style="stop-color:#6f0fa7;stop-opacity:1;" offset="0.15625"/><stop style="stop-color:#700fa7;stop-opacity:1;" offset="0.160156"/><stop style="stop-color:#700fa6;stop-opacity:1;" offset="0.164062"/><stop style="stop-color:#710fa6;stop-opacity:1;" offset="0.167969"/><stop style="stop-color:#720fa6;stop-opacity:1;" offset="0.171875"/><stop style="stop-color:#7210a6;stop-opacity:1;" offset="0.175781"/><stop style="stop-color:#7310a6;stop-opacity:1;" offset="0.179688"/><stop style="stop-color:#7410a6;stop-opacity:1;" offset="0.183594"/><stop style="stop-color:#7410a5;stop-opacity:1;" offset="0.1875"/><stop style="stop-color:#7510a5;stop-opacity:1;" offset="0.191406"/><stop style="stop-color:#7510a5;stop-opacity:1;" offset="0.195312"/><stop style="stop-color:#7610a5;stop-opacity:1;" offset="0.199219"/><stop style="stop-color:#7710a5;stop-opacity:1;" offset="0.203125"/><stop style="stop-color:#7710a5;stop-opacity:1;" offset="0.207031"/><stop style="stop-color:#7810a5;stop-opacity:1;" offset="0.210938"/><stop style="stop-color:#7911a4;stop-opacity:1;" offset="0.214844"/><stop style="stop-color:#7911a4;stop-opacity:1;" offset="0.21875"/><stop style="stop-color:#7a11a4;stop-opacity:1;" offset="0.222656"/><stop style="stop-color:#7a11a4;stop-opacity:1;" offset="0.226562"/><stop style="stop-color:#7b11a4;stop-opacity:1;" offset="0.230469"/><stop style="stop-color:#7c11a4;stop-opacity:1;" offset="0.234375"/><stop style="stop-color:#7c11a3;stop-opacity:1;" offset="0.238281"/><stop style="stop-color:#7d11a3;stop-opacity:1;" offset="0.242188"/><stop style="stop-color:#7e11a3;stop-opacity:1;" offset="0.246094"/><stop style="stop-color:#7e11a3;stop-opacity:1;" offset="0.25"/><stop style="stop-color:#7f12a3;stop-opacity:1;" offset="0.253906"/><stop style="stop-color:#8012a3;stop-opacity:1;" offset="0.257812"/><stop style="stop-color:#8012a3;stop-opacity:1;" offset="0.261719"/><stop style="stop-color:#8112a2;stop-opacity:1;" offset="0.265625"/><stop style="stop-color:#8112a2;stop-opacity:1;" offset="0.269531"/><stop style="stop-color:#8212a2;stop-opacity:1;" offset="0.273438"/><stop style="stop-color:#8312a2;stop-opacity:1;" offset="0.277344"/><stop style="stop-color:#8312a2;stop-opacity:1;" offset="0.28125"/><stop style="stop-color:#8412a2;stop-opacity:1;" offset="0.285156"/><stop style="stop-color:#8513a1;stop-opacity:1;" offset="0.289062"/><stop style="stop-color:#8513a1;stop-opacity:1;" offset="0.292969"/><stop style="stop-color:#8613a1;stop-opacity:1;" offset="0.296875"/><stop style="stop-color:#8613a1;stop-opacity:1;" offset="0.300781"/><stop style="stop-color:#8713a1;stop-opacity:1;" offset="0.304688"/><stop style="stop-color:#8813a1;stop-opacity:1;" offset="0.308594"/><stop style="stop-color:#8813a0;stop-opacity:1;" offset="0.3125"/><stop style="stop-color:#8913a0;stop-opacity:1;" offset="0.316406"/><stop style="stop-color:#8a13a0;stop-opacity:1;" offset="0.320312"/><stop style="stop-color:#8a13a0;stop-opacity:1;" offset="0.324219"/><stop style="stop-color:#8b14a0;stop-opacity:1;" offset="0.328125"/><stop style="stop-color:#8b14a0;stop-opacity:1;" offset="0.332031"/><stop style="stop-color:#8c14a0;stop-opacity:1;" offset="0.335938"/><stop style="stop-color:#8d149f;stop-opacity:1;" offset="0.339844"/><stop style="stop-color:#8d149f;stop-opacity:1;" offset="0.34375"/><stop style="stop-color:#8e149f;stop-opacity:1;" offset="0.347656"/><stop style="stop-color:#8f149f;stop-opacity:1;" offset="0.351562"/><stop style="stop-color:#8f149f;stop-opacity:1;" offset="0.355469"/><stop style="stop-color:#90149f;stop-opacity:1;" offset="0.359375"/><stop style="stop-color:#90149e;stop-opacity:1;" offset="0.363281"/><stop style="stop-color:#91159e;stop-opacity:1;" offset="0.367188"/><stop style="stop-color:#92159e;stop-opacity:1;" offset="0.371094"/><stop style="stop-color:#92159e;stop-opacity:1;" offset="0.375"/><stop style="stop-color:#93159e;stop-opacity:1;" offset="0.378906"/><stop style="stop-color:#94159e;stop-opacity:1;" offset="0.382812"/><stop style="stop-color:#94159e;stop-opacity:1;" offset="0.386719"/><stop style="stop-color:#95159d;stop-opacity:1;" offset="0.390625"/><stop style="stop-color:#96159d;stop-opacity:1;" offset="0.394531"/><stop style="stop-color:#96159d;stop-opacity:1;" offset="0.398438"/><stop style="stop-color:#97159d;stop-opacity:1;" offset="0.402344"/><stop style="stop-color:#97169d;stop-opacity:1;" offset="0.40625"/><stop style="stop-color:#98169d;stop-opacity:1;" offset="0.410156"/><stop style="stop-color:#99169c;stop-opacity:1;" offset="0.414062"/><stop style="stop-color:#99169c;stop-opacity:1;" offset="0.417969"/><stop style="stop-color:#9a169c;stop-opacity:1;" offset="0.421875"/><stop style="stop-color:#9b169c;stop-opacity:1;" offset="0.425781"/><stop style="stop-color:#9b169c;stop-opacity:1;" offset="0.429688"/><stop style="stop-color:#9c169c;stop-opacity:1;" offset="0.433594"/><stop style="stop-color:#9c169b;stop-opacity:1;" offset="0.4375"/><stop style="stop-color:#9d169b;stop-opacity:1;" offset="0.441406"/><stop style="stop-color:#9e179b;stop-opacity:1;" offset="0.445312"/><stop style="stop-color:#9e179b;stop-opacity:1;" offset="0.449219"/><stop style="stop-color:#9f179b;stop-opacity:1;" offset="0.453125"/><stop style="stop-color:#a0179b;stop-opacity:1;" offset="0.457031"/><stop style="stop-color:#a0179b;stop-opacity:1;" offset="0.460938"/><stop style="stop-color:#a1179a;stop-opacity:1;" offset="0.464844"/><stop style="stop-color:#a1179a;stop-opacity:1;" offset="0.46875"/><stop style="stop-color:#a2179a;stop-opacity:1;" offset="0.472656"/><stop style="stop-color:#a3179a;stop-opacity:1;" offset="0.476562"/><stop style="stop-color:#a3179a;stop-opacity:1;" offset="0.480469"/><stop style="stop-color:#a4189a;stop-opacity:1;" offset="0.484375"/><stop style="stop-color:#a51899;stop-opacity:1;" offset="0.488281"/><stop style="stop-color:#a51899;stop-opacity:1;" offset="0.492188"/><stop style="stop-color:#a61899;stop-opacity:1;" offset="0.496094"/><stop style="stop-color:#a61899;stop-opacity:1;" offset="0.5"/><stop style="stop-color:#a71899;stop-opacity:1;" offset="0.503906"/><stop style="stop-color:#a81899;stop-opacity:1;" offset="0.507812"/><stop style="stop-color:#a81899;stop-opacity:1;" offset="0.511719"/><stop style="stop-color:#a91898;stop-opacity:1;" offset="0.515625"/><stop style="stop-color:#aa1998;stop-opacity:1;" offset="0.519531"/><stop style="stop-color:#aa1998;stop-opacity:1;" offset="0.523438"/><stop style="stop-color:#ab1998;stop-opacity:1;" offset="0.527344"/><stop style="stop-color:#ac1998;stop-opacity:1;" offset="0.53125"/><stop style="stop-color:#ac1998;stop-opacity:1;" offset="0.535156"/><stop style="stop-color:#ad1997;stop-opacity:1;" offset="0.539062"/><stop style="stop-color:#ad1997;stop-opacity:1;" offset="0.542969"/><stop style="stop-color:#ae1997;stop-opacity:1;" offset="0.546875"/><stop style="stop-color:#af1997;stop-opacity:1;" offset="0.550781"/><stop style="stop-color:#af1997;stop-opacity:1;" offset="0.554688"/><stop style="stop-color:#b01a97;stop-opacity:1;" offset="0.558594"/><stop style="stop-color:#b11a96;stop-opacity:1;" offset="0.5625"/><stop style="stop-color:#b11a96;stop-opacity:1;" offset="0.566406"/><stop style="stop-color:#b21a96;stop-opacity:1;" offset="0.570312"/><stop style="stop-color:#b21a96;stop-opacity:1;" offset="0.574219"/><stop style="stop-color:#b31a96;stop-opacity:1;" offset="0.578125"/><stop style="stop-color:#b41a96;stop-opacity:1;" offset="0.582031"/><stop style="stop-color:#b41a96;stop-opacity:1;" offset="0.585938"/><stop style="stop-color:#b51a95;stop-opacity:1;" offset="0.589844"/><stop style="stop-color:#b61a95;stop-opacity:1;" offset="0.59375"/><stop style="stop-color:#b61b95;stop-opacity:1;" offset="0.597656"/><stop style="stop-color:#b71b95;stop-opacity:1;" offset="0.601562"/><stop style="stop-color:#b71b95;stop-opacity:1;" offset="0.605469"/><stop style="stop-color:#b81b95;stop-opacity:1;" offset="0.609375"/><stop style="stop-color:#b91b94;stop-opacity:1;" offset="0.613281"/><stop style="stop-color:#b91b94;stop-opacity:1;" offset="0.617188"/><stop style="stop-color:#ba1b94;stop-opacity:1;" offset="0.621094"/><stop style="stop-color:#bb1b94;stop-opacity:1;" offset="0.625"/><stop style="stop-color:#bb1b94;stop-opacity:1;" offset="0.628906"/><stop style="stop-color:#bc1b94;stop-opacity:1;" offset="0.632812"/><stop style="stop-color:#bd1c94;stop-opacity:1;" offset="0.636719"/><stop style="stop-color:#bd1c93;stop-opacity:1;" offset="0.640625"/><stop style="stop-color:#be1c93;stop-opacity:1;" offset="0.644531"/><stop style="stop-color:#be1c93;stop-opacity:1;" offset="0.648438"/><stop style="stop-color:#bf1c93;stop-opacity:1;" offset="0.652344"/><stop style="stop-color:#c01c93;stop-opacity:1;" offset="0.65625"/><stop style="stop-color:#c01c93;stop-opacity:1;" offset="0.660156"/><stop style="stop-color:#c11c92;stop-opacity:1;" offset="0.664062"/><stop style="stop-color:#c21c92;stop-opacity:1;" offset="0.667969"/><stop style="stop-color:#c21c92;stop-opacity:1;" offset="0.671875"/><stop style="stop-color:#c31d92;stop-opacity:1;" offset="0.675781"/><stop style="stop-color:#c31d92;stop-opacity:1;" offset="0.679688"/><stop style="stop-color:#c41d92;stop-opacity:1;" offset="0.683594"/><stop style="stop-color:#c51d91;stop-opacity:1;" offset="0.6875"/><stop style="stop-color:#c51d91;stop-opacity:1;" offset="0.691406"/><stop style="stop-color:#c61d91;stop-opacity:1;" offset="0.695312"/><stop style="stop-color:#c71d91;stop-opacity:1;" offset="0.699219"/><stop style="stop-color:#c71d91;stop-opacity:1;" offset="0.703125"/><stop style="stop-color:#c81d91;stop-opacity:1;" offset="0.707031"/><stop style="stop-color:#c81d91;stop-opacity:1;" offset="0.710938"/><stop style="stop-color:#c91e90;stop-opacity:1;" offset="0.714844"/><stop style="stop-color:#ca1e90;stop-opacity:1;" offset="0.71875"/><stop style="stop-color:#ca1e90;stop-opacity:1;" offset="0.722656"/><stop style="stop-color:#cb1e90;stop-opacity:1;" offset="0.726562"/><stop style="stop-color:#cc1e90;stop-opacity:1;" offset="0.730469"/><stop style="stop-color:#cc1e90;stop-opacity:1;" offset="0.734375"/><stop style="stop-color:#cd1e8f;stop-opacity:1;" offset="0.738281"/><stop style="stop-color:#cd1e8f;stop-opacity:1;" offset="0.742188"/><stop style="stop-color:#ce1e8f;stop-opacity:1;" offset="0.746094"/><stop style="stop-color:#cf1e8f;stop-opacity:1;" offset="0.75"/><stop style="stop-color:#cf1f8f;stop-opacity:1;" offset="0.753906"/><stop style="stop-color:#d01f8f;stop-opacity:1;" offset="0.757812"/><stop style="stop-color:#d11f8f;stop-opacity:1;" offset="0.761719"/><stop style="stop-color:#d11f8e;stop-opacity:1;" offset="0.765625"/><stop style="stop-color:#d21f8e;stop-opacity:1;" offset="0.769531"/><stop style="stop-color:#d31f8e;stop-opacity:1;" offset="0.773438"/><stop style="stop-color:#d31f8e;stop-opacity:1;" offset="0.777344"/><stop style="stop-color:#d41f8e;stop-opacity:1;" offset="0.78125"/><stop style="stop-color:#d41f8e;stop-opacity:1;" offset="0.785156"/><stop style="stop-color:#d5208d;stop-opacity:1;" offset="0.789062"/><stop style="stop-color:#d6208d;stop-opacity:1;" offset="0.792969"/><stop style="stop-color:#d6208d;stop-opacity:1;" offset="0.796875"/><stop style="stop-color:#d7208d;stop-opacity:1;" offset="0.800781"/><stop style="stop-color:#d8208d;stop-opacity:1;" offset="0.804688"/><stop style="stop-color:#d8208d;stop-opacity:1;" offset="0.808594"/><stop style="stop-color:#d9208d;stop-opacity:1;" offset="0.8125"/><stop style="stop-color:#d9208c;stop-opacity:1;" offset="0.816406"/><stop style="stop-color:#da208c;stop-opacity:1;" offset="0.820312"/><stop style="stop-color:#db208c;stop-opacity:1;" offset="0.824219"/><stop style="stop-color:#db218c;stop-opacity:1;" offset="0.828125"/><stop style="stop-color:#dc218c;stop-opacity:1;" offset="0.832031"/><stop style="stop-color:#dd218c;stop-opacity:1;" offset="0.835938"/><stop style="stop-color:#dd218b;stop-opacity:1;" offset="0.839844"/><stop style="stop-color:#de218b;stop-opacity:1;" offset="0.84375"/><stop style="stop-color:#de218b;stop-opacity:1;" offset="0.847656"/><stop style="stop-color:#df218b;stop-opacity:1;" offset="0.851562"/><stop style="stop-color:#e0218b;stop-opacity:1;" offset="0.855469"/><stop style="stop-color:#e0218b;stop-opacity:1;" offset="0.859375"/><stop style="stop-color:#e1218a;stop-opacity:1;" offset="0.863281"/><stop style="stop-color:#e2228a;stop-opacity:1;" offset="0.867188"/><stop style="stop-color:#e2228a;stop-opacity:1;" offset="0.871094"/><stop style="stop-color:#e3228a;stop-opacity:1;" offset="0.875"/><stop style="stop-color:#e3228a;stop-opacity:1;" offset="0.878906"/><stop style="stop-color:#e4228a;stop-opacity:1;" offset="0.882812"/><stop style="stop-color:#e5228a;stop-opacity:1;" offset="0.886719"/><stop style="stop-color:#e52289;stop-opacity:1;" offset="0.890625"/><stop style="stop-color:#e62289;stop-opacity:1;" offset="0.894531"/><stop style="stop-color:#e72289;stop-opacity:1;" offset="0.898438"/><stop style="stop-color:#e72289;stop-opacity:1;" offset="0.902344"/><stop style="stop-color:#e82389;stop-opacity:1;" offset="0.90625"/><stop style="stop-color:#e92389;stop-opacity:1;" offset="0.910156"/><stop style="stop-color:#e92388;stop-opacity:1;" offset="0.914062"/><stop style="stop-color:#ea2388;stop-opacity:1;" offset="0.917969"/><stop style="stop-color:#ea2388;stop-opacity:1;" offset="0.921875"/><stop style="stop-color:#eb2388;stop-opacity:1;" offset="0.925781"/><stop style="stop-color:#ec2388;stop-opacity:1;" offset="0.929688"/><stop style="stop-color:#ec2388;stop-opacity:1;" offset="0.933594"/><stop style="stop-color:#ed2388;stop-opacity:1;" offset="0.9375"/><stop style="stop-color:#ee2387;stop-opacity:1;" offset="0.941406"/><stop style="stop-color:#ee2487;stop-opacity:1;" offset="0.945312"/><stop style="stop-color:#ef2487;stop-opacity:1;" offset="0.949219"/><stop style="stop-color:#ef2487;stop-opacity:1;" offset="0.953125"/><stop style="stop-color:#f02487;stop-opacity:1;" offset="0.957031"/><stop style="stop-color:#f12487;stop-opacity:1;" offset="0.960938"/><stop style="stop-color:#f12486;stop-opacity:1;" offset="0.964844"/><stop style="stop-color:#f22486;stop-opacity:1;" offset="0.96875"/><stop style="stop-color:#f32486;stop-opacity:1;" offset="0.972656"/><stop style="stop-color:#f32486;stop-opacity:1;" offset="0.976562"/><stop style="stop-color:#f42486;stop-opacity:1;" offset="0.980469"/><stop style="stop-color:#f42586;stop-opacity:1;" offset="0.984375"/><stop style="stop-color:#f52585;stop-opacity:1;" offset="0.988281"/><stop style="stop-color:#f62585;stop-opacity:1;" offset="0.992188"/><stop style="stop-color:#f62585;stop-opacity:1;" offset="0.996094"/><stop style="stop-color:#f72585;stop-opacity:1;" offset="1"/></linearGradient><clipPath id="153e37f428"><rect x="0" width="375" y="0" height="375"/></clipPath><clipPath id="13718e9978"><path d="M 183 37.5 L 192 37.5 L 192 55 L 183 55 Z M 183 37.5 "/></clipPath><clipPath id="b945cf549a"><path d="M 183 320 L 192 320 L 192 337.5 L 183 337.5 Z M 183 320 "/></clipPath><clipPath id="8062d65527"><path d="M 37.5 183 L 55 183 L 55 192 L 37.5 192 Z M 37.5 183 "/></clipPath><clipPath id="a859c6b263"><path d="M 320 183 L 337.5 183 L 337.5 192 L 320 192 Z M 320 183 "/></clipPath><clipPath id="7bb5038464"><path d="M 134 155.617188 L 161 155.617188 L 161 183 L 134 183 Z M 134 155.617188 "/></clipPath><clipPath id="94da84b0d1"><path d="M 169 160 L 240.996094 160 L 240.996094 164 L 169 164 Z M 169 160 "/></clipPath><clipPath id="871c7ce7f2"><path d="M 169 198 L 240.996094 198 L 240.996094 203 L 169 203 Z M 169 198 "/></clipPath><clipPath id="c67fa4d2c6"><path d="M 134 232 L 161 232 L 161 259.117188 L 134 259.117188 Z M 134 232 "/></clipPath><clipPath id="1c12341efd"><path d="M 169 237 L 240.996094 237 L 240.996094 242 L 169 242 Z M 169 237 "/></clipPath><clipPath id="5e3789be43"><path d="M 117.589844 99.835938 L 257.089844 99.835938 L 257.089844 275.335938 L 117.589844 275.335938 Z M 117.589844 99.835938 "/></clipPath><clipPath id="1745acc11f"><path d="M 135.441406 155.617188 L 167.691406 155.617188 L 167.691406 180.367188 L 135.441406 180.367188 Z M 135.441406 155.617188 "/></clipPath><clipPath id="c8e155d36c"><path d="M 135.441406 195 L 167.691406 195 L 167.691406 219.722656 L 135.441406 219.722656 Z M 135.441406 195 "/></clipPath></defs><g id="ee331f16f2"><g clip-rule="nonzero" clip-path="url(#d0c79f2694)"><g transform="matrix(1,0,0,1,0,0)"><g clip-path="url(#153e37f428)"><g clip-rule="nonzero" clip-path="url(#c014d7df8d)"><rect x="0" width="375" height="375" y="0" style="fill:url(#2bcaa918f1);stroke:none;"/></g></g></g></g><path style=" stroke:none;fill-rule:nonzero;fill:#ffffff;fill-opacity:1;" d="M 186.050781 39.65625 L 188.988281 39.65625 L 188.988281 52.539062 L 186.050781 52.539062 Z M 186.050781 39.65625 "/><g clip-rule="nonzero" clip-path="url(#13718e9978)"><path style=" stroke:none;fill-rule:nonzero;fill:#ffffff;fill-opacity:1;" d="M 183.894531 37.5 L 191.148438 37.5 L 191.148438 54.699219 L 183.894531 54.699219 Z M 183.894531 37.5 "/></g><path style=" stroke:none;fill-rule:nonzero;fill:#ffffff;fill-opacity:1;" d="M 186.050781 322.460938 L 188.988281 322.460938 L 188.988281 335.34375 L 186.050781 335.34375 Z M 186.050781 322.460938 "/><g clip-rule="nonzero" clip-path="url(#b945cf549a)"><path style=" stroke:none;fill-rule:nonzero;fill:#ffffff;fill-opacity:1;" d="M 183.894531 320.300781 L 191.148438 320.300781 L 191.148438 337.5 L 183.894531 337.5 Z M 183.894531 320.300781 "/></g><path style=" stroke:none;fill-rule:nonzero;fill:#ffffff;fill-opacity:1;" d="M 147.820312 45.089844 L 150.660156 44.332031 L 153.992188 56.773438 L 151.15625 57.535156 Z M 147.820312 45.089844 "/><path style=" stroke:none;fill-rule:nonzero;fill:#ffffff;fill-opacity:1;" d="M 221.023438 318.257812 L 223.859375 317.496094 L 227.195312 329.941406 L 224.355469 330.699219 Z M 221.023438 318.257812 "/><path style=" stroke:none;fill-rule:nonzero;fill:#ffffff;fill-opacity:1;" d="M 112.316406 60.191406 L 114.863281 58.722656 L 121.304688 69.878906 L 118.757812 71.347656 Z M 112.316406 60.191406 "/><path style=" stroke:none;fill-rule:nonzero;fill:#ffffff;fill-opacity:1;" d="M 253.714844 305.101562 L 256.257812 303.632812 L 262.699219 314.789062 L 260.15625 316.257812 Z M 253.714844 305.101562 "/><path style=" stroke:none;fill-rule:nonzero;fill:#ffffff;fill-opacity:1;" d="M 81.925781 84.007812 L 84 81.929688 L 93.109375 91.039062 L 91.035156 93.117188 Z M 81.925781 84.007812 "/><path style=" stroke:none;fill-rule:nonzero;fill:#ffffff;fill-opacity:1;" d="M 281.902344 283.980469 L 283.980469 281.902344 L 293.089844 291.011719 L 291.011719 293.089844 Z M 281.902344 283.980469 "/><path style=" stroke:none;fill-rule:nonzero;fill:#ffffff;fill-opacity:1;" d="M 58.734375 114.847656 L 60.203125 112.304688 L 71.359375 118.746094 L 69.890625 121.289062 Z M 58.734375 114.847656 "/><path style=" stroke:none;fill-rule:nonzero;fill:#ffffff;fill-opacity:1;" d="M 303.644531 256.257812 L 305.113281 253.710938 L 316.269531 260.152344 L 314.800781 262.699219 Z M 303.644531 256.257812 "/><path style=" stroke:none;fill-rule:nonzero;fill:#ffffff;fill-opacity:1;" d="M 44.316406 150.667969 L 45.074219 147.828125 L 57.519531 151.164062 L 56.757812 154 Z M 44.316406 150.667969 "/><path style=" stroke:none;fill-rule:nonzero;fill:#ffffff;fill-opacity:1;" d="M 317.496094 223.875 L 318.253906 221.035156 L 330.699219 224.371094 L 329.9375 227.207031 Z M 317.496094 223.875 "/><path style=" stroke:none;fill-rule:nonzero;fill:#ffffff;fill-opacity:1;" d="M 39.65625 186.050781 L 52.539062 186.050781 L 52.539062 188.988281 L 39.65625 188.988281 Z M 39.65625 186.050781 "/><g clip-rule="nonzero" clip-path="url(#8062d65527)"><path style=" stroke:none;fill-rule:nonzero;fill:#ffffff;fill-opacity:1;" d="M 37.5 183.894531 L 54.699219 183.894531 L 54.699219 191.148438 L 37.5 191.148438 Z M 37.5 183.894531 "/></g><path style=" stroke:none;fill-rule:nonzero;fill:#ffffff;fill-opacity:1;" d="M 322.460938 186.050781 L 335.34375 186.050781 L 335.34375 188.988281 L 322.460938 188.988281 Z M 322.460938 186.050781 "/><g clip-rule="nonzero" clip-path="url(#a859c6b263)"><path style=" stroke:none;fill-rule:nonzero;fill:#ffffff;fill-opacity:1;" d="M 320.300781 183.894531 L 337.5 183.894531 L 337.5 191.148438 L 320.300781 191.148438 Z M 320.300781 183.894531 "/></g><path style=" stroke:none;fill-rule:nonzero;fill:#ffffff;fill-opacity:1;" d="M 44.324219 224.363281 L 56.765625 221.03125 L 57.527344 223.867188 L 45.082031 227.203125 Z M 44.324219 224.363281 "/><path style=" stroke:none;fill-rule:nonzero;fill:#ffffff;fill-opacity:1;" d="M 317.488281 151.164062 L 329.933594 147.828125 L 330.691406 150.667969 L 318.25 154 Z M 317.488281 151.164062 "/><path style=" stroke:none;fill-rule:nonzero;fill:#ffffff;fill-opacity:1;" d="M 58.734375 260.167969 L 69.890625 253.726562 L 71.359375 256.269531 L 60.203125 262.710938 Z M 58.734375 260.167969 "/><path style=" stroke:none;fill-rule:nonzero;fill:#ffffff;fill-opacity:1;" d="M 303.644531 118.769531 L 314.800781 112.328125 L 316.269531 114.871094 L 305.113281 121.3125 Z M 303.644531 118.769531 "/><path style=" stroke:none;fill-rule:nonzero;fill:#ffffff;fill-opacity:1;" d="M 81.929688 291.015625 L 91.035156 281.90625 L 93.113281 283.984375 L 84.003906 293.09375 Z M 81.929688 291.015625 "/><path style=" stroke:none;fill-rule:nonzero;fill:#ffffff;fill-opacity:1;" d="M 281.898438 91.035156 L 291.007812 81.925781 L 293.085938 84.003906 L 283.976562 93.113281 Z M 281.898438 91.035156 "/><path style=" stroke:none;fill-rule:nonzero;fill:#ffffff;fill-opacity:1;" d="M 112.3125 314.828125 L 118.753906 303.671875 L 121.296875 305.140625 L 114.855469 316.296875 Z M 112.3125 314.828125 "/><path style=" stroke:none;fill-rule:nonzero;fill:#ffffff;fill-opacity:1;" d="M 253.71875 69.917969 L 260.160156 58.761719 L 262.707031 60.230469 L 256.265625 71.386719 Z M 253.71875 69.917969 "/><path style=" stroke:none;fill-rule:nonzero;fill:#ffffff;fill-opacity:1;" d="M 147.816406 329.949219 L 151.152344 317.507812 L 153.988281 318.265625 L 150.65625 330.710938 Z M 147.816406 329.949219 "/><path style=" stroke:none;fill-rule:nonzero;fill:#ffffff;fill-opacity:1;" d="M 221.023438 56.769531 L 224.359375 44.324219 L 227.195312 45.085938 L 223.863281 57.53125 Z M 221.023438 56.769531 "/><g clip-rule="nonzero" clip-path="url(#7bb5038464)"><path style=" stroke:none;fill-rule:nonzero;fill:#ffffff;fill-opacity:1;" d="M 154.730469 155.679688 L 139.78125 155.679688 C 139.402344 155.679688 139.03125 155.714844 138.664062 155.789062 C 138.292969 155.863281 137.933594 155.972656 137.589844 156.117188 C 137.242188 156.261719 136.910156 156.4375 136.597656 156.644531 C 136.285156 156.855469 135.996094 157.09375 135.730469 157.359375 C 135.464844 157.625 135.226562 157.914062 135.019531 158.226562 C 134.808594 158.539062 134.632812 158.867188 134.488281 159.214844 C 134.34375 159.5625 134.234375 159.921875 134.160156 160.289062 C 134.089844 160.660156 134.050781 161.03125 134.050781 161.40625 L 134.050781 176.359375 C 134.050781 176.734375 134.089844 177.105469 134.160156 177.476562 C 134.234375 177.84375 134.34375 178.203125 134.488281 178.550781 C 134.632812 178.894531 134.808594 179.226562 135.019531 179.539062 C 135.226562 179.851562 135.464844 180.140625 135.730469 180.40625 C 135.996094 180.671875 136.285156 180.910156 136.597656 181.121094 C 136.910156 181.328125 137.242188 181.503906 137.589844 181.648438 C 137.933594 181.792969 138.292969 181.902344 138.664062 181.976562 C 139.03125 182.046875 139.402344 182.085938 139.78125 182.085938 L 154.730469 182.085938 C 155.105469 182.085938 155.480469 182.050781 155.847656 181.976562 C 156.21875 181.902344 156.574219 181.796875 156.921875 181.652344 C 157.269531 181.507812 157.601562 181.332031 157.914062 181.121094 C 158.226562 180.914062 158.515625 180.675781 158.78125 180.410156 C 159.046875 180.144531 159.285156 179.855469 159.496094 179.542969 C 159.703125 179.230469 159.878906 178.898438 160.023438 178.550781 C 160.167969 178.203125 160.277344 177.84375 160.347656 177.476562 C 160.421875 177.105469 160.457031 176.734375 160.457031 176.359375 L 160.457031 161.40625 C 160.457031 161.03125 160.421875 160.660156 160.347656 160.289062 C 160.277344 159.921875 160.167969 159.5625 160.023438 159.214844 C 159.878906 158.867188 159.703125 158.535156 159.496094 158.222656 C 159.285156 157.910156 159.046875 157.621094 158.78125 157.355469 C 158.515625 157.089844 158.226562 156.851562 157.914062 156.640625 C 157.601562 156.433594 157.269531 156.257812 156.921875 156.113281 C 156.574219 155.96875 156.21875 155.859375 155.847656 155.789062 C 155.480469 155.714844 155.105469 155.679688 154.730469 155.679688 Z M 154.730469 155.679688 "/></g><g clip-rule="nonzero" clip-path="url(#94da84b0d1)"><path style=" stroke:none;fill-rule:nonzero;fill:#ffffff;fill-opacity:1;" d="M 170.882812 163.878906 L 239.066406 163.878906 C 239.320312 163.875 239.558594 163.824219 239.789062 163.726562 C 240.019531 163.625 240.222656 163.488281 240.398438 163.308594 C 240.574219 163.128906 240.710938 162.925781 240.804688 162.691406 C 240.902344 162.460938 240.949219 162.21875 240.949219 161.96875 C 240.949219 161.71875 240.902344 161.476562 240.804688 161.246094 C 240.710938 161.011719 240.574219 160.808594 240.398438 160.628906 C 240.222656 160.449219 240.019531 160.3125 239.789062 160.214844 C 239.558594 160.113281 239.320312 160.0625 239.066406 160.058594 L 170.882812 160.058594 C 170.632812 160.0625 170.390625 160.113281 170.160156 160.214844 C 169.929688 160.3125 169.726562 160.449219 169.550781 160.628906 C 169.375 160.808594 169.238281 161.011719 169.144531 161.246094 C 169.050781 161.476562 169 161.71875 169 161.96875 C 169 162.21875 169.050781 162.460938 169.144531 162.691406 C 169.238281 162.925781 169.375 163.128906 169.550781 163.308594 C 169.726562 163.488281 169.929688 163.625 170.160156 163.726562 C 170.390625 163.824219 170.632812 163.875 170.882812 163.878906 Z M 170.882812 163.878906 "/></g><path style=" stroke:none;fill-rule:nonzero;fill:#ffffff;fill-opacity:1;" d="M 170.882812 177.703125 L 206.71875 177.703125 C 206.972656 177.699219 207.210938 177.648438 207.441406 177.550781 C 207.671875 177.449219 207.875 177.3125 208.050781 177.132812 C 208.226562 176.957031 208.363281 176.75 208.457031 176.519531 C 208.554688 176.285156 208.601562 176.042969 208.601562 175.792969 C 208.601562 175.542969 208.554688 175.300781 208.457031 175.070312 C 208.363281 174.835938 208.226562 174.632812 208.050781 174.453125 C 207.875 174.273438 207.671875 174.136719 207.441406 174.039062 C 207.210938 173.9375 206.972656 173.886719 206.71875 173.882812 L 170.882812 173.882812 C 170.632812 173.886719 170.390625 173.9375 170.160156 174.039062 C 169.929688 174.136719 169.726562 174.273438 169.550781 174.453125 C 169.375 174.632812 169.238281 174.835938 169.144531 175.070312 C 169.046875 175.300781 169 175.542969 169 175.792969 C 169 176.042969 169.046875 176.285156 169.144531 176.519531 C 169.238281 176.75 169.375 176.957031 169.550781 177.132812 C 169.726562 177.3125 169.929688 177.449219 170.160156 177.550781 C 170.390625 177.648438 170.632812 177.699219 170.882812 177.703125 Z M 170.882812 177.703125 "/><path style=" stroke:none;fill-rule:nonzero;fill:#ffffff;fill-opacity:1;" d="M 139.78125 194.324219 L 154.730469 194.324219 C 155.105469 194.324219 155.480469 194.363281 155.847656 194.433594 C 156.214844 194.507812 156.574219 194.617188 156.921875 194.761719 C 157.269531 194.90625 157.601562 195.082031 157.914062 195.289062 C 158.226562 195.5 158.515625 195.738281 158.78125 196.003906 C 159.046875 196.269531 159.285156 196.558594 159.492188 196.871094 C 159.703125 197.183594 159.878906 197.515625 160.023438 197.859375 C 160.167969 198.207031 160.273438 198.566406 160.347656 198.9375 C 160.421875 199.304688 160.457031 199.675781 160.457031 200.054688 L 160.457031 215.023438 C 160.457031 215.398438 160.421875 215.773438 160.347656 216.140625 C 160.273438 216.507812 160.167969 216.867188 160.023438 217.214844 C 159.878906 217.5625 159.703125 217.894531 159.492188 218.207031 C 159.285156 218.519531 159.046875 218.808594 158.78125 219.074219 C 158.515625 219.339844 158.226562 219.578125 157.914062 219.785156 C 157.601562 219.996094 157.269531 220.171875 156.921875 220.316406 C 156.574219 220.460938 156.214844 220.566406 155.847656 220.640625 C 155.480469 220.714844 155.105469 220.75 154.730469 220.75 L 139.78125 220.75 C 139.402344 220.75 139.03125 220.714844 138.664062 220.640625 C 138.292969 220.566406 137.933594 220.460938 137.585938 220.316406 C 137.238281 220.171875 136.910156 219.996094 136.597656 219.785156 C 136.285156 219.578125 135.996094 219.339844 135.730469 219.074219 C 135.464844 218.808594 135.226562 218.519531 135.015625 218.207031 C 134.808594 217.894531 134.632812 217.5625 134.488281 217.214844 C 134.34375 216.867188 134.234375 216.507812 134.160156 216.140625 C 134.089844 215.773438 134.050781 215.398438 134.050781 215.023438 L 134.050781 200.054688 C 134.050781 199.675781 134.089844 199.304688 134.160156 198.9375 C 134.234375 198.566406 134.34375 198.207031 134.488281 197.859375 C 134.632812 197.515625 134.808594 197.183594 135.015625 196.871094 C 135.226562 196.558594 135.464844 196.269531 135.730469 196.003906 C 135.996094 195.738281 136.285156 195.5 136.597656 195.289062 C 136.910156 195.082031 137.238281 194.90625 137.585938 194.761719 C 137.933594 194.617188 138.292969 194.507812 138.664062 194.433594 C 139.03125 194.363281 139.402344 194.324219 139.78125 194.324219 Z M 139.78125 194.324219 "/><g clip-rule="nonzero" clip-path="url(#871c7ce7f2)"><path style=" stroke:none;fill-rule:nonzero;fill:#ffffff;fill-opacity:1;" d="M 239.066406 198.714844 L 170.882812 198.714844 C 170.632812 198.71875 170.390625 198.773438 170.160156 198.871094 C 169.929688 198.96875 169.726562 199.105469 169.550781 199.285156 C 169.375 199.464844 169.238281 199.667969 169.144531 199.902344 C 169.046875 200.132812 169 200.375 169 200.625 C 169 200.875 169.046875 201.117188 169.144531 201.351562 C 169.238281 201.582031 169.375 201.789062 169.550781 201.964844 C 169.726562 202.144531 169.929688 202.28125 170.160156 202.382812 C 170.390625 202.480469 170.632812 202.53125 170.882812 202.535156 L 239.066406 202.535156 C 239.320312 202.53125 239.558594 202.480469 239.789062 202.382812 C 240.019531 202.28125 240.222656 202.144531 240.398438 201.964844 C 240.574219 201.785156 240.710938 201.582031 240.804688 201.351562 C 240.898438 201.117188 240.949219 200.875 240.949219 200.625 C 240.949219 200.375 240.898438 200.132812 240.804688 199.902344 C 240.710938 199.671875 240.574219 199.464844 240.398438 199.285156 C 240.222656 199.109375 240.019531 198.96875 239.789062 198.871094 C 239.558594 198.773438 239.320312 198.71875 239.066406 198.714844 Z M 239.066406 198.714844 "/></g><path style=" stroke:none;fill-rule:nonzero;fill:#ffffff;fill-opacity:1;" d="M 170.882812 216.359375 L 206.71875 216.359375 C 206.972656 216.355469 207.210938 216.304688 207.441406 216.207031 C 207.671875 216.109375 207.875 215.96875 208.050781 215.789062 C 208.230469 215.613281 208.363281 215.40625 208.460938 215.175781 C 208.554688 214.941406 208.601562 214.703125 208.601562 214.449219 C 208.601562 214.199219 208.554688 213.957031 208.460938 213.726562 C 208.363281 213.492188 208.230469 213.289062 208.050781 213.109375 C 207.875 212.929688 207.671875 212.792969 207.441406 212.695312 C 207.210938 212.597656 206.972656 212.542969 206.71875 212.542969 L 170.882812 212.542969 C 170.632812 212.542969 170.390625 212.597656 170.160156 212.695312 C 169.929688 212.792969 169.726562 212.933594 169.550781 213.109375 C 169.375 213.289062 169.238281 213.496094 169.144531 213.726562 C 169.046875 213.957031 169 214.199219 169 214.449219 C 169 214.699219 169.046875 214.941406 169.144531 215.175781 C 169.238281 215.40625 169.375 215.613281 169.550781 215.789062 C 169.726562 215.96875 169.929688 216.109375 170.160156 216.207031 C 170.390625 216.304688 170.632812 216.355469 170.882812 216.359375 Z M 170.882812 216.359375 "/><g clip-rule="nonzero" clip-path="url(#c67fa4d2c6)"><path style=" stroke:none;fill-rule:nonzero;fill:#ffffff;fill-opacity:1;" d="M 154.730469 232.992188 L 139.78125 232.992188 C 139.402344 232.992188 139.03125 233.027344 138.664062 233.101562 C 138.292969 233.175781 137.933594 233.285156 137.589844 233.425781 C 137.242188 233.570312 136.910156 233.75 136.597656 233.957031 C 136.285156 234.167969 135.996094 234.402344 135.730469 234.667969 C 135.464844 234.933594 135.226562 235.226562 135.019531 235.539062 C 134.808594 235.851562 134.632812 236.179688 134.488281 236.527344 C 134.34375 236.875 134.234375 237.234375 134.160156 237.601562 C 134.089844 237.96875 134.050781 238.34375 134.050781 238.71875 L 134.050781 253.667969 C 134.050781 254.046875 134.089844 254.417969 134.160156 254.785156 C 134.234375 255.15625 134.34375 255.511719 134.488281 255.859375 C 134.632812 256.207031 134.808594 256.539062 135.019531 256.851562 C 135.226562 257.164062 135.464844 257.453125 135.730469 257.71875 C 135.996094 257.984375 136.285156 258.222656 136.597656 258.429688 C 136.910156 258.640625 137.242188 258.816406 137.589844 258.960938 C 137.933594 259.105469 138.292969 259.214844 138.664062 259.285156 C 139.03125 259.359375 139.402344 259.398438 139.78125 259.398438 L 154.730469 259.398438 C 155.105469 259.398438 155.480469 259.363281 155.847656 259.289062 C 156.21875 259.214844 156.574219 259.105469 156.921875 258.964844 C 157.269531 258.820312 157.601562 258.644531 157.914062 258.433594 C 158.226562 258.226562 158.515625 257.988281 158.78125 257.722656 C 159.046875 257.457031 159.285156 257.167969 159.496094 256.851562 C 159.703125 256.539062 159.878906 256.210938 160.023438 255.863281 C 160.167969 255.515625 160.277344 255.15625 160.347656 254.789062 C 160.421875 254.417969 160.457031 254.046875 160.457031 253.667969 L 160.457031 238.71875 C 160.457031 238.34375 160.421875 237.96875 160.347656 237.601562 C 160.277344 237.230469 160.167969 236.871094 160.023438 236.523438 C 159.878906 236.175781 159.703125 235.847656 159.496094 235.535156 C 159.285156 235.222656 159.046875 234.933594 158.78125 234.664062 C 158.515625 234.398438 158.226562 234.164062 157.914062 233.953125 C 157.601562 233.746094 157.269531 233.566406 156.921875 233.425781 C 156.574219 233.28125 156.21875 233.171875 155.847656 233.097656 C 155.480469 233.027344 155.105469 232.988281 154.730469 232.992188 Z M 154.730469 232.992188 "/></g><g clip-rule="nonzero" clip-path="url(#1c12341efd)"><path style=" stroke:none;fill-rule:nonzero;fill:#ffffff;fill-opacity:1;" d="M 239.066406 237.375 L 170.882812 237.375 C 170.632812 237.378906 170.390625 237.429688 170.160156 237.527344 C 169.929688 237.625 169.726562 237.765625 169.550781 237.941406 C 169.375 238.121094 169.238281 238.328125 169.144531 238.558594 C 169.046875 238.789062 169 239.03125 169 239.28125 C 169 239.535156 169.046875 239.773438 169.144531 240.007812 C 169.238281 240.238281 169.375 240.445312 169.550781 240.621094 C 169.726562 240.800781 169.929688 240.941406 170.160156 241.039062 C 170.390625 241.136719 170.632812 241.1875 170.882812 241.191406 L 239.066406 241.191406 C 239.320312 241.1875 239.558594 241.136719 239.789062 241.039062 C 240.019531 240.941406 240.222656 240.800781 240.398438 240.621094 C 240.574219 240.445312 240.710938 240.238281 240.804688 240.007812 C 240.898438 239.773438 240.949219 239.535156 240.949219 239.28125 C 240.949219 239.03125 240.898438 238.789062 240.804688 238.558594 C 240.710938 238.328125 240.574219 238.121094 240.398438 237.941406 C 240.222656 237.765625 240.019531 237.625 239.789062 237.527344 C 239.558594 237.429688 239.320312 237.378906 239.066406 237.375 Z M 239.066406 237.375 "/></g><path style=" stroke:none;fill-rule:nonzero;fill:#ffffff;fill-opacity:1;" d="M 206.71875 251.199219 L 170.882812 251.199219 C 170.632812 251.203125 170.390625 251.253906 170.160156 251.351562 C 169.929688 251.449219 169.726562 251.589844 169.550781 251.765625 C 169.375 251.945312 169.238281 252.152344 169.144531 252.382812 C 169.046875 252.613281 169 252.855469 169 253.105469 C 169 253.359375 169.046875 253.597656 169.144531 253.832031 C 169.238281 254.0625 169.375 254.269531 169.550781 254.449219 C 169.726562 254.625 169.929688 254.765625 170.160156 254.863281 C 170.390625 254.960938 170.632812 255.011719 170.882812 255.015625 L 206.71875 255.015625 C 206.972656 255.011719 207.210938 254.960938 207.441406 254.863281 C 207.671875 254.765625 207.875 254.625 208.050781 254.449219 C 208.226562 254.269531 208.363281 254.0625 208.457031 253.832031 C 208.554688 253.597656 208.601562 253.359375 208.601562 253.105469 C 208.601562 252.855469 208.554688 252.613281 208.457031 252.382812 C 208.363281 252.152344 208.226562 251.945312 208.050781 251.765625 C 207.875 251.589844 207.671875 251.449219 207.441406 251.351562 C 207.210938 251.253906 206.972656 251.203125 206.71875 251.199219 Z M 206.71875 251.199219 "/><g clip-rule="nonzero" clip-path="url(#5e3789be43)"><path style=" stroke:none;fill-rule:nonzero;fill:#ffffff;fill-opacity:1;" d="M 257.351562 138.050781 L 257.351562 137.503906 C 257.351562 137.503906 257.351562 137.230469 257.214844 137.09375 L 257.214844 136.957031 C 257.214844 136.820312 257.078125 136.679688 257.078125 136.542969 L 257.078125 136.40625 C 256.941406 136.269531 256.804688 136.132812 256.804688 135.996094 L 221.191406 100.382812 C 221.054688 100.246094 220.917969 100.109375 220.78125 100.109375 L 220.644531 100.109375 C 220.507812 99.972656 220.371094 99.972656 220.234375 99.972656 L 220.09375 99.972656 C 219.957031 99.972656 219.820312 99.835938 219.683594 99.835938 C 219.546875 99.835938 219.273438 99.835938 219.136719 99.835938 L 125.859375 99.835938 C 121.339844 99.835938 117.640625 103.535156 117.640625 108.054688 L 117.640625 266.941406 C 117.640625 271.460938 121.339844 275.160156 125.859375 275.160156 L 249.132812 275.160156 C 253.652344 275.160156 257.351562 271.460938 257.351562 266.941406 Z M 251.875 266.804688 C 251.875 268.3125 250.640625 269.542969 249.132812 269.542969 L 125.859375 269.542969 C 124.351562 269.542969 123.121094 268.3125 123.121094 266.804688 L 123.121094 107.917969 C 123.121094 106.410156 124.351562 105.179688 125.859375 105.179688 L 216.261719 105.179688 L 216.261719 128.875 C 216.261719 135.449219 221.601562 140.789062 228.175781 140.789062 L 251.875 140.789062 Z M 251.875 266.804688 "/></g><g clip-rule="nonzero" clip-path="url(#1745acc11f)"><path style=" stroke:none;fill-rule:nonzero;fill:#efefef;fill-opacity:1;" d="M 145.738281 175.199219 L 138.070312 167.535156 L 135.46875 170.136719 L 145.738281 180.402344 L 167.796875 158.34375 L 165.195312 155.742188 Z M 145.738281 175.199219 "/></g><g clip-rule="nonzero" clip-path="url(#c8e155d36c)"><path style=" stroke:none;fill-rule:nonzero;fill:#efefef;fill-opacity:1;" d="M 145.738281 214.554688 L 138.070312 206.890625 L 135.46875 209.492188 L 145.738281 219.757812 L 167.796875 197.699219 L 165.195312 195.097656 Z M 145.738281 214.554688 "/></g></g></svg>